<?xml version="1.0" encoding="utf-8"?>
<!-- Generator: Adobe Illustrator 16.0.0, SVG Export Plug-In . SVG Version: 6.00 Build 0)  -->
<!DOCTYPE svg PUBLIC "-//W3C//DTD SVG 1.1//EN" "http://www.w3.org/Graphics/SVG/1.1/DTD/svg11.dtd">
<svg version="1.1" id="Layer_1" xmlns="http://www.w3.org/2000/svg" xmlns:xlink="http://www.w3.org/1999/xlink" x="0px" y="0px"
	 width="1920px" height="1080px" viewBox="0 0 1920 1080" enable-background="new 0 0 1920 1080" xml:space="preserve">
<rect fill="#333333" width="1920" height="1080"/>
<line fill="none" stroke="#B3B3B3" stroke-width="2" stroke-miterlimit="10" x1="846" y1="488" x2="827" y2="488"/>
<line fill="none" stroke="#B3B3B3" stroke-width="2" stroke-miterlimit="10" x1="827" y1="489" x2="827" y2="382"/>
<line fill="none" stroke="#B3B3B3" stroke-width="2" stroke-miterlimit="10" x1="827" y1="334" x2="827" y2="281"/>
<line fill="none" stroke="#B3B3B3" stroke-width="2" stroke-miterlimit="10" x1="828" y1="281" x2="794" y2="281"/>
<line fill="none" stroke="#B3B3B3" stroke-width="2" stroke-miterlimit="10" x1="795" y1="282" x2="795" y2="251"/>
<line fill="none" stroke="#B3B3B3" stroke-width="2" stroke-miterlimit="10" x1="794" y1="200" x2="794" y2="167"/>
<line fill="none" stroke="#B3B3B3" stroke-width="2" stroke-miterlimit="10" x1="795" y1="167" x2="758" y2="167"/>
<line fill="none" stroke="#B3B3B3" stroke-width="2" stroke-miterlimit="10" x1="736" y1="143" x2="736" y2="103"/>
<line fill="none" stroke="#B3B3B3" stroke-width="2" stroke-miterlimit="10" x1="735" y1="103" x2="830" y2="103"/>
<line fill="none" stroke="#B3B3B3" stroke-width="2" stroke-miterlimit="10" x1="846" y1="512" x2="647" y2="512"/>
<line fill="none" stroke="#B3B3B3" stroke-width="2" stroke-miterlimit="10" x1="647" y1="513" x2="647" y2="477"/>
<line fill="none" stroke="#B3B3B3" stroke-width="2" stroke-miterlimit="10" x1="647" y1="454" x2="647" y2="419"/>
<g>
	<defs>
		<rect id="SVGID_1_" width="1920" height="1080"/>
	</defs>
	<clipPath id="SVGID_2_">
		<use xlink:href="#SVGID_1_"  overflow="visible"/>
	</clipPath>
	<polyline clip-path="url(#SVGID_2_)" fill="none" stroke="#B3B3B3" stroke-width="2" stroke-miterlimit="10" points="647,376 
		647,310 518,310 518,244 231,244 231,268 106,268 106,195 119,195 119,206 131,206 131,195 143,195 143,206 238,206 238,184 
		238,111 100,111 100,85 100,12 144,12 144,31 36,31 0,31 	"/>
</g>
<polyline fill="none" stroke="#B3B3B3" stroke-width="2" stroke-miterlimit="10" points="145,21 228,21 228,42 307,42 307,85 
	242,85 242,108 359,108 359,133 359,201 238,201 "/>
<line fill="none" stroke="#B3B3B3" stroke-width="2" stroke-miterlimit="10" x1="312.226" y1="201" x2="312.226" y2="244"/>
<polyline fill="none" stroke="#B3B3B3" stroke-width="2" stroke-miterlimit="10" points="24,45 24,78 215,78 215,94 "/>
<line fill="none" stroke="#B3B3B3" stroke-width="2" stroke-miterlimit="10" x1="24" y1="77" x2="24" y2="318"/>
<line fill="none" stroke="#B3B3B3" stroke-width="2" stroke-miterlimit="10" x1="24.484" y1="178.371" x2="90" y2="178.371"/>
<polyline fill="none" stroke="#B3B3B3" stroke-width="2" stroke-miterlimit="10" points="391,142 483,142 483,45 312,45 "/>
<g>
	<defs>
		<rect id="SVGID_3_" width="1920" height="1080"/>
	</defs>
	<clipPath id="SVGID_4_">
		<use xlink:href="#SVGID_3_"  overflow="visible"/>
	</clipPath>
	
		<line clip-path="url(#SVGID_4_)" fill="none" stroke="#B3B3B3" stroke-width="2" stroke-miterlimit="10" x1="386.291" y1="45" x2="386.291" y2="0"/>
</g>
<polyline fill="none" stroke="#B3B3B3" stroke-width="2" stroke-miterlimit="10" points="506,48 583,48 583,210 514,210 514,240 "/>
<polyline fill="none" stroke="#B3B3B3" stroke-width="2" stroke-miterlimit="10" points="541.129,210 541.129,117 483.06,117 "/>
<polyline fill="none" stroke="#B3B3B3" stroke-width="2" stroke-miterlimit="10" points="644,299 644,167 717,167 "/>
<polyline fill="none" stroke="#B3B3B3" stroke-width="2" stroke-miterlimit="10" points="680.5,167 681,142 583,142 "/>
<polyline fill="none" stroke="#B3B3B3" stroke-width="2" stroke-miterlimit="10" points="644,250 614,250 614,264 590,264 590,250 
	569,250 549,250 "/>
<polyline fill="none" stroke="#B3B3B3" stroke-width="2" stroke-miterlimit="10" points="291.011,244 291,329 180,329 180,357 
	135,357 135,329 57,329 57,267 92,267 "/>
<polyline fill="none" stroke="#B3B3B3" stroke-width="2" stroke-miterlimit="10" points="35,345 35,445 221,445 221,382 262,382 
	262,442 289,442 289,345 411,345 411,455 541,455 541,472 590,472 "/>
<polyline fill="none" stroke="#B3B3B3" stroke-width="2" stroke-miterlimit="10" points="518.791,324 518.791,398 590,398 410,398 
	"/>
<polyline fill="none" stroke="#B3B3B3" stroke-width="2" stroke-miterlimit="10" points="846,537 750,537 750,666 692,666 601,666 
	601,642 750,642 "/>
<polyline fill="none" stroke="#B3B3B3" stroke-width="2" stroke-miterlimit="10" points="846,561 545,561 545,535 380,535 380,618 
	323,618 323,537 404,537 "/>
<polyline fill="none" stroke="#B3B3B3" stroke-width="2" stroke-miterlimit="10" points="419,636 467,636 467,668 585,668 "/>
<polyline fill="none" stroke="#B3B3B3" stroke-width="2" stroke-miterlimit="10" points="421,609 492,609 492,642 577,642 "/>
<g>
	<defs>
		<rect id="SVGID_5_" width="1920" height="1080"/>
	</defs>
	<clipPath id="SVGID_6_">
		<use xlink:href="#SVGID_5_"  overflow="visible"/>
	</clipPath>
	<polyline clip-path="url(#SVGID_6_)" fill="none" stroke="#B3B3B3" stroke-width="2" stroke-miterlimit="10" points="323,615.064 
		263,615.064 263,494 216,494 216,447 216,535 98,535 98,591.001 0,591.001 	"/>
</g>
<line fill="none" stroke="#B3B3B3" stroke-width="2" stroke-miterlimit="10" x1="98" y1="512" x2="98" y2="445"/>
<g>
	<defs>
		<rect id="SVGID_7_" width="1920" height="1080"/>
	</defs>
	<clipPath id="SVGID_8_">
		<use xlink:href="#SVGID_7_"  overflow="visible"/>
	</clipPath>
	<polyline clip-path="url(#SVGID_8_)" fill="none" stroke="#B3B3B3" stroke-width="2" stroke-miterlimit="10" points="168,548 
		168,592 137,592 137,637 137,773 156,773 156,854 103,854 103,889 262,889 262,877 323,877 323,812 395,812 395,930 142,930 
		142,1049 142,1080 	"/>
	
		<line clip-path="url(#SVGID_8_)" fill="none" stroke="#B3B3B3" stroke-width="2" stroke-miterlimit="10" x1="305.516" y1="930" x2="305.516" y2="1080"/>
	<polyline clip-path="url(#SVGID_8_)" fill="none" stroke="#B3B3B3" stroke-width="2" stroke-miterlimit="10" points="375.193,930 
		375.193,1016 48,1016 48,910 0,910 	"/>
</g>
<line fill="none" stroke="#B3B3B3" stroke-width="2" stroke-miterlimit="10" x1="334" y1="646" x2="334" y2="812"/>
<polyline fill="none" stroke="#B3B3B3" stroke-width="2" stroke-miterlimit="10" points="399,639 399,729 334.437,729 334.437,684 
	137.006,684 "/>
<polyline fill="none" stroke="#B3B3B3" stroke-width="2" stroke-miterlimit="10" points="601,684 601,963 601,1046 651,1046 
	651,847 816,847 "/>
<g>
	<defs>
		<rect id="SVGID_9_" width="1920" height="1080"/>
	</defs>
	<clipPath id="SVGID_10_">
		<use xlink:href="#SVGID_9_"  overflow="visible"/>
	</clipPath>
	<polyline clip-path="url(#SVGID_10_)" fill="none" stroke="#B3B3B3" stroke-width="2" stroke-miterlimit="10" points="566,1053 
		455,1053 455,1080 	"/>
	<polyline clip-path="url(#SVGID_10_)" fill="none" stroke="#B3B3B3" stroke-width="2" stroke-miterlimit="10" points="560,982 
		431,982 431,1042 375,1042 375,1080 	"/>
	<polyline clip-path="url(#SVGID_10_)" fill="none" stroke="#B3B3B3" stroke-width="2" stroke-miterlimit="10" points="842,900 
		842,1006 776,1006 776,1080 776,1006 842,1006 950,1006 950,1064 1002,1064 1002,1012 1069,1012 1069,1062 1314,1062 1314,1074 
		1435,1074 1435,990 1173,990 1173,1062 1122,1062 1122,1080 	"/>
</g>
<polyline fill="none" stroke="#B3B3B3" stroke-width="2" stroke-miterlimit="10" points="1002,838 1002,940 842,940 "/>
<polyline fill="none" stroke="#B3B3B3" stroke-width="2" stroke-miterlimit="10" points="1054,812 1261,812 1261,976 "/>
<line fill="none" stroke="#B3B3B3" stroke-width="2" stroke-miterlimit="10" x1="1415" y1="867" x2="1261.349" y2="867"/>
<polyline fill="none" stroke="#B3B3B3" stroke-width="2" stroke-miterlimit="10" points="746,680 746,717 911,717 911,645 "/>
<line fill="none" stroke="#B3B3B3" stroke-width="2" stroke-miterlimit="10" x1="842" y1="812" x2="842" y2="717"/>
<polyline fill="none" stroke="#B3B3B3" stroke-width="2" stroke-miterlimit="10" points="935,649 935,744 1002,744 1002,793 "/>
<polyline fill="none" stroke="#B3B3B3" stroke-width="2" stroke-miterlimit="10" points="983,645 983,685 1239,685 1239,776 
	1179,776 1179,813 "/>
<polyline fill="none" stroke="#B3B3B3" stroke-width="2" stroke-miterlimit="10" points="960,649 960,727 1054,727 1054,740 
	1197,740 1197,776 "/>
<polyline fill="none" stroke="#B3B3B3" stroke-width="2" stroke-miterlimit="10" points="1007,649 1007,661 1091,661 1091,634 
	1454,634 1454,761 1338,761 1338,709 1411,709 1411,807 1484,807 1484,845 "/>
<polyline fill="none" stroke="#B3B3B3" stroke-width="2" stroke-miterlimit="10" points="1071,488 1220,488 1220,523 1160,523 
	1160,512 1067,512 "/>
<polyline fill="none" stroke="#B3B3B3" stroke-width="2" stroke-miterlimit="10" points="1073,535 1166,535 1166,569 1331,569 
	1409,569 1409,634 "/>
<line fill="none" stroke="#B3B3B3" stroke-width="2" stroke-miterlimit="10" x1="1073" y1="560" x2="1166" y2="560"/>
<polyline fill="none" stroke="#B3B3B3" stroke-width="2" stroke-miterlimit="10" points="1073,584 1130,584 1130,608 1258,608 
	1258,634 "/>
<g>
	<defs>
		<rect id="SVGID_11_" width="1920" height="1080"/>
	</defs>
	<clipPath id="SVGID_12_">
		<use xlink:href="#SVGID_11_"  overflow="visible"/>
	</clipPath>
	<polyline clip-path="url(#SVGID_12_)" fill="none" stroke="#B3B3B3" stroke-width="2" stroke-miterlimit="10" points="
		1409,592.613 1612,592.613 1612,583 1875,583 1875,372 1920,372 	"/>
</g>
<polyline fill="none" stroke="#B3B3B3" stroke-width="2" stroke-miterlimit="10" points="848,584 820,584 820,668 876,668 876,717 
	876,668 820,668 820,717.014 "/>
<g>
	<defs>
		<rect id="SVGID_13_" width="1920" height="1080"/>
	</defs>
	<clipPath id="SVGID_14_">
		<use xlink:href="#SVGID_13_"  overflow="visible"/>
	</clipPath>
	<polyline clip-path="url(#SVGID_14_)" fill="none" stroke="#B3B3B3" stroke-width="2" stroke-miterlimit="10" points="1469,1059 
		1650,1059 1650,940 1840,940 1840,1056 1720,1056 1720,1010 1774,1010 1774,1080 	"/>
	
		<line clip-path="url(#SVGID_14_)" fill="none" stroke="#B3B3B3" stroke-width="2" stroke-miterlimit="10" x1="1840" y1="985.903" x2="1920" y2="985.903"/>
	<polyline clip-path="url(#SVGID_14_)" fill="none" stroke="#B3B3B3" stroke-width="2" stroke-miterlimit="10" points="
		1555.064,1059.152 1555.064,1080 1555.064,872 1525,872 1525,948 1457,948 1457,872 	"/>
</g>
<polyline fill="none" stroke="#B3B3B3" stroke-width="2" stroke-miterlimit="10" points="1749,906 1749,755 1905,755 1905,819 "/>
<line fill="none" stroke="#B3B3B3" stroke-width="2" stroke-miterlimit="10" x1="1898" y1="825" x2="1749.428" y2="825"/>
<polyline fill="none" stroke="#B3B3B3" stroke-width="2" stroke-miterlimit="10" points="1749,786.678 1655,786.678 1655,730 
	1609,730 1609,613 "/>
<polyline fill="none" stroke="#B3B3B3" stroke-width="2" stroke-miterlimit="10" points="1891,733 1891,655 1713,655 1713,596 "/>
<polyline fill="none" stroke="#B3B3B3" stroke-width="2" stroke-miterlimit="10" points="911,426 911,361 749,361 749,398 687,398 
	"/>
<polyline fill="none" stroke="#B3B3B3" stroke-width="2" stroke-miterlimit="10" points="935,426 935,222 806,222 "/>
<polyline fill="none" stroke="#B3B3B3" stroke-width="2" stroke-miterlimit="10" points="960,426 960,167 846,167 846,34 654,34 
	654,58 572,58 "/>
<g>
	<defs>
		<rect id="SVGID_15_" width="1920" height="1080"/>
	</defs>
	<clipPath id="SVGID_16_">
		<use xlink:href="#SVGID_15_"  overflow="visible"/>
	</clipPath>
	<polyline clip-path="url(#SVGID_16_)" fill="none" stroke="#B3B3B3" stroke-width="2" stroke-miterlimit="10" points="911,31 
		876,31 876,16 795,16 795,0 	"/>
</g>
<polyline fill="none" stroke="#B3B3B3" stroke-width="2" stroke-miterlimit="10" points="1012,107 1012,251 960,251 "/>
<line fill="none" stroke="#B3B3B3" stroke-width="2" stroke-miterlimit="10" x1="983" y1="423" x2="983" y2="250"/>
<polyline fill="none" stroke="#B3B3B3" stroke-width="2" stroke-miterlimit="10" points="1007,426 1007,251 1007,376 1155,376 
	1155,489 "/>
<polyline fill="none" stroke="#B3B3B3" stroke-width="2" stroke-miterlimit="10" points="1166,366 1229,366 1229,329 1311,329 
	1311,370 1358,370 1358,382 1334,382 1334,448 1281,448 1281,523 "/>
<polyline fill="none" stroke="#B3B3B3" stroke-width="2" stroke-miterlimit="10" points="1351,400 1599,400 1599,575 1599,472 
	1488,472 1488,537 1374,537 1374,569 "/>
<line fill="none" stroke="#B3B3B3" stroke-width="2" stroke-miterlimit="10" x1="1599" y1="512" x2="1875" y2="512"/>
<polyline fill="none" stroke="#B3B3B3" stroke-width="2" stroke-miterlimit="10" points="1599,438.548 1705,438.548 1705,273 
	1883,273 1883,319 1815,319 1815,368 1781,368 1781,228 1781,175 1781,159 1859,159 1859,187 1906,187 1906,220 1875,220 1875,273 
	"/>
<polyline fill="none" stroke="#B3B3B3" stroke-width="2" stroke-miterlimit="10" points="1737,103 1737,164 1614,164 1614,307 
	1661,307 1661,351 "/>
<polyline fill="none" stroke="#B3B3B3" stroke-width="2" stroke-miterlimit="10" points="1614,274.419 1510,274.419 1510,400 "/>
<polyline fill="none" stroke="#B3B3B3" stroke-width="2" stroke-miterlimit="10" points="1540.613,274.419 1540.613,207 1269,207 
	1269,329 "/>
<g>
	<defs>
		<rect id="SVGID_17_" width="1920" height="1080"/>
	</defs>
	<clipPath id="SVGID_18_">
		<use xlink:href="#SVGID_17_"  overflow="visible"/>
	</clipPath>
	<polyline clip-path="url(#SVGID_18_)" fill="none" stroke="#B3B3B3" stroke-width="2" stroke-miterlimit="10" points="1269,192 
		1269,88 1028,88 1028,0 	"/>
</g>
<polyline fill="none" stroke="#B3B3B3" stroke-width="2" stroke-miterlimit="10" points="1269,154 1453,154 1453,83 1510,83 
	1510,149 1652,149 1652,164.833 "/>
<g>
	<defs>
		<rect id="SVGID_19_" width="1920" height="1080"/>
	</defs>
	<clipPath id="SVGID_20_">
		<use xlink:href="#SVGID_19_"  overflow="visible"/>
	</clipPath>
	<polyline clip-path="url(#SVGID_20_)" fill="none" stroke="#B3B3B3" stroke-width="2" stroke-miterlimit="10" points="1756,90 
		1833,90 1833,0 	"/>
</g>
<polyline fill="none" stroke="#B3B3B3" stroke-width="2" stroke-miterlimit="10" points="1737,79 1737,26 1505,26 1505,83 "/>
<g>
	<defs>
		<rect id="SVGID_21_" width="1920" height="1080"/>
	</defs>
	<clipPath id="SVGID_22_">
		<use xlink:href="#SVGID_21_"  overflow="visible"/>
	</clipPath>
	<polyline clip-path="url(#SVGID_22_)" fill="none" stroke="#B3B3B3" stroke-width="2" stroke-miterlimit="10" points="1358,154.5 
		1358,45 1269,45 1269,0 	"/>
</g>
<g>
	<defs>
		<rect id="SVGID_23_" width="1920" height="1080"/>
	</defs>
	<clipPath id="SVGID_24_">
		<use xlink:href="#SVGID_23_"  overflow="visible"/>
	</clipPath>
	<path clip-path="url(#SVGID_24_)" fill="#E0E0E0" d="M894.174,627.261h129.863c16.319,0,29.549-13.229,29.549-29.548V474.179
		c0-16.319-13.229-29.548-29.549-29.548H894.174c-16.319,0-29.548,13.229-29.548,29.548v123.534
		C864.626,614.031,877.855,627.261,894.174,627.261"/>
	<path clip-path="url(#SVGID_24_)" fill="none" stroke="#1A1A1A" stroke-width="6" stroke-miterlimit="10" d="M894.174,627.261
		h129.863c16.319,0,29.549-13.229,29.549-29.548V474.179c0-16.319-13.229-29.548-29.549-29.548H894.174
		c-16.319,0-29.548,13.229-29.548,29.548v123.534C864.626,614.031,877.855,627.261,894.174,627.261z"/>
	<path clip-path="url(#SVGID_24_)" fill="#6AFFB9" d="M933.437,574.723h52.242c8.044,0,14.564-6.521,14.564-14.564v-49.517
		c0-8.044-6.521-14.565-14.564-14.565h-52.242c-8.043,0-14.564,6.521-14.564,14.565v49.517
		C918.873,568.202,925.394,574.723,933.437,574.723"/>
	<path clip-path="url(#SVGID_24_)" fill="none" stroke="#333333" stroke-width="6" stroke-miterlimit="10" d="M933.437,574.723
		h52.242c8.044,0,14.564-6.521,14.564-14.564v-49.517c0-8.044-6.521-14.565-14.564-14.565h-52.242
		c-8.043,0-14.564,6.521-14.564,14.565v49.517C918.873,568.202,925.394,574.723,933.437,574.723z"/>
	
		<line clip-path="url(#SVGID_24_)" fill="none" stroke="#1A1A1A" stroke-width="6" stroke-miterlimit="10" x1="910.736" y1="443.725" x2="911.641" y2="422.931"/>
	
		<line clip-path="url(#SVGID_24_)" fill="none" stroke="#1A1A1A" stroke-width="6" stroke-miterlimit="10" x1="934.986" y1="443.711" x2="935.891" y2="422.917"/>
	
		<line clip-path="url(#SVGID_24_)" fill="none" stroke="#1A1A1A" stroke-width="6" stroke-miterlimit="10" x1="959.105" y1="444.09" x2="960.01" y2="423.296"/>
	
		<line clip-path="url(#SVGID_24_)" fill="none" stroke="#1A1A1A" stroke-width="6" stroke-miterlimit="10" x1="982.612" y1="444.09" x2="983.518" y2="423.296"/>
	
		<line clip-path="url(#SVGID_24_)" fill="none" stroke="#1A1A1A" stroke-width="6" stroke-miterlimit="10" x1="1006.119" y1="444.09" x2="1007.024" y2="423.296"/>
	
		<line clip-path="url(#SVGID_24_)" fill="none" stroke="#1A1A1A" stroke-width="6" stroke-miterlimit="10" x1="1053.678" y1="488.05" x2="1074.489" y2="488.328"/>
	
		<line clip-path="url(#SVGID_24_)" fill="none" stroke="#1A1A1A" stroke-width="6" stroke-miterlimit="10" x1="1054.423" y1="512.289" x2="1075.234" y2="512.567"/>
	
		<line clip-path="url(#SVGID_24_)" fill="none" stroke="#1A1A1A" stroke-width="6" stroke-miterlimit="10" x1="1054.771" y1="536.409" x2="1075.582" y2="536.687"/>
	
		<line clip-path="url(#SVGID_24_)" fill="none" stroke="#1A1A1A" stroke-width="6" stroke-miterlimit="10" x1="1055.479" y1="559.905" x2="1076.291" y2="560.184"/>
	
		<line clip-path="url(#SVGID_24_)" fill="none" stroke="#1A1A1A" stroke-width="6" stroke-miterlimit="10" x1="1056.188" y1="583.401" x2="1076.999" y2="583.68"/>
	
		<line clip-path="url(#SVGID_24_)" fill="none" stroke="#1A1A1A" stroke-width="6" stroke-miterlimit="10" x1="911.034" y1="648.215" x2="911.939" y2="627.421"/>
	
		<line clip-path="url(#SVGID_24_)" fill="none" stroke="#1A1A1A" stroke-width="6" stroke-miterlimit="10" x1="935.284" y1="648.201" x2="936.189" y2="627.407"/>
	
		<line clip-path="url(#SVGID_24_)" fill="none" stroke="#1A1A1A" stroke-width="6" stroke-miterlimit="10" x1="959.404" y1="648.581" x2="960.309" y2="627.786"/>
	
		<line clip-path="url(#SVGID_24_)" fill="none" stroke="#1A1A1A" stroke-width="6" stroke-miterlimit="10" x1="982.911" y1="648.581" x2="983.816" y2="627.786"/>
	
		<line clip-path="url(#SVGID_24_)" fill="none" stroke="#1A1A1A" stroke-width="6" stroke-miterlimit="10" x1="1006.418" y1="648.581" x2="1007.323" y2="627.786"/>
	
		<line clip-path="url(#SVGID_24_)" fill="none" stroke="#1A1A1A" stroke-width="6" stroke-miterlimit="10" x1="842.24" y1="488.121" x2="863.054" y2="488.225"/>
	
		<line clip-path="url(#SVGID_24_)" fill="none" stroke="#1A1A1A" stroke-width="6" stroke-miterlimit="10" x1="843.188" y1="512.352" x2="864.002" y2="512.456"/>
	
		<line clip-path="url(#SVGID_24_)" fill="none" stroke="#1A1A1A" stroke-width="6" stroke-miterlimit="10" x1="843.738" y1="536.468" x2="864.552" y2="536.572"/>
	
		<line clip-path="url(#SVGID_24_)" fill="none" stroke="#1A1A1A" stroke-width="6" stroke-miterlimit="10" x1="844.644" y1="559.958" x2="865.458" y2="560.063"/>
	
		<line clip-path="url(#SVGID_24_)" fill="none" stroke="#1A1A1A" stroke-width="6" stroke-miterlimit="10" x1="845.549" y1="583.447" x2="866.363" y2="583.552"/>
	<path clip-path="url(#SVGID_24_)" fill="#333333" d="M1017.421,471.753c0,2.996,2.429,5.425,5.425,5.425s5.425-2.429,5.425-5.425
		s-2.429-5.424-5.425-5.424S1017.421,468.757,1017.421,471.753"/>
	
		<circle clip-path="url(#SVGID_24_)" fill="none" stroke="#333333" stroke-width="6" stroke-miterlimit="10" cx="1022.846" cy="471.753" r="5.425"/>
	<path clip-path="url(#SVGID_24_)" fill="#333333" d="M886.325,602.85c0,2.996,2.429,5.425,5.425,5.425
		c2.995,0,5.424-2.429,5.424-5.425c0-2.995-2.429-5.424-5.424-5.424C888.754,597.426,886.325,599.854,886.325,602.85"/>
	
		<circle clip-path="url(#SVGID_24_)" fill="none" stroke="#333333" stroke-width="6" stroke-miterlimit="10" cx="891.749" cy="602.85" r="5.425"/>
</g>
<g>
	<defs>
		<rect id="SVGID_25_" width="1920" height="1080"/>
	</defs>
	<clipPath id="SVGID_26_">
		<use xlink:href="#SVGID_25_"  overflow="visible"/>
	</clipPath>
	<path clip-path="url(#SVGID_26_)" fill="#E6E6E6" d="M79.759,190.222h146.286c13.055,0,23.638-10.583,23.638-23.638
		c0-0.036-0.029-0.066-0.066-0.066H79.759c-0.036,0-0.065,0.03-0.065,0.066v23.573C79.694,190.193,79.723,190.222,79.759,190.222"/>
	<rect x="5" y="311.947" clip-path="url(#SVGID_26_)" fill="#E6E6E6" width="60.275" height="33.185"/>
	<path clip-path="url(#SVGID_26_)" fill="#E6E6E6" d="M347.545,159.069h27.09c9.164,0,16.593-7.429,16.593-16.593
		c0-9.163-7.429-16.592-16.593-16.592h-27.09c-9.164,0-16.593,7.429-16.593,16.592C330.952,151.64,338.381,159.069,347.545,159.069"
		/>
	<path clip-path="url(#SVGID_26_)" fill="#E6E6E6" d="M303.143,61.889L303.143,61.889c8.609,0,15.587-6.979,15.587-15.587V21.254
		h-29.798v26.424C288.932,55.527,295.293,61.889,303.143,61.889"/>
	<path clip-path="url(#SVGID_26_)" fill="#E6E6E6" d="M68.976,89.312h62.746c13.531,0,24.5-10.969,24.5-24.5v-0.51
		c0-0.027-0.021-0.048-0.048-0.048H44.573c-0.054,0-0.097,0.043-0.097,0.097v0.461C44.476,78.343,55.445,89.312,68.976,89.312"/>
	<rect x="134.375" y="520.725" clip-path="url(#SVGID_26_)" fill="#E6E6E6" width="60.275" height="29.122"/>
	<path clip-path="url(#SVGID_26_)" fill="#E6E6E6" d="M556.46,73.772h52.921c0.348,0,0.63-0.282,0.63-0.629V45.314
		c0-5.977-4.846-10.822-10.823-10.822h-29.825c-7.474,0-13.532,6.058-13.532,13.532v25.119
		C555.831,73.491,556.112,73.772,556.46,73.772"/>
	<rect x="562.603" y="58.196" clip-path="url(#SVGID_26_)" fill="#E6E6E6" width="40.635" height="20.317"/>
	<path clip-path="url(#SVGID_26_)" fill="#E6E6E6" d="M503.06,267h30.113c8.89,0,16.097-7.207,16.097-16.097v-0.991
		c0-8.891-7.207-16.097-16.097-16.097H503.06c-8.89,0-16.097,7.206-16.097,16.097v0.991C486.962,259.793,494.169,267,503.06,267"/>
	<path clip-path="url(#SVGID_26_)" fill="#E6E6E6" d="M458.935,441.884h-92.106c-13.055,0-23.638,10.583-23.638,23.638
		c0,0.036,0.029,0.066,0.065,0.066h115.679c0.036,0,0.065-0.03,0.065-0.066v-23.573C459,441.913,458.971,441.884,458.935,441.884"/>
	<rect x="276.111" y="317.513" clip-path="url(#SVGID_26_)" fill="#E6E6E6" width="29.799" height="37.249"/>
	<rect x="430.121" y="520.536" clip-path="url(#SVGID_26_)" fill="#E6E6E6" width="60.275" height="29.121"/>
	<rect x="614.185" y="297.245" clip-path="url(#SVGID_26_)" fill="#E6E6E6" width="60.275" height="29.122"/>
	<rect x="713.25" y="142.665" clip-path="url(#SVGID_26_)" fill="#E6E6E6" width="44.75" height="44.335"/>
	<rect x="901.701" y="16.149" clip-path="url(#SVGID_26_)" fill="#E6E6E6" width="48.299" height="29.122"/>
	<rect x="159" y="548" clip-path="url(#SVGID_26_)" fill="#E6E6E6" width="17" height="5"/>
	<rect x="131" y="530" clip-path="url(#SVGID_26_)" fill="#E6E6E6" width="5" height="11"/>
	<rect x="191" y="530" clip-path="url(#SVGID_26_)" fill="#E6E6E6" width="7" height="11"/>
	<rect x="489" y="529" clip-path="url(#SVGID_26_)" fill="#E6E6E6" width="5" height="13"/>
</g>
<g>
	<defs>
		<rect id="SVGID_27_" width="1920" height="1080"/>
	</defs>
	<clipPath id="SVGID_28_">
		<use xlink:href="#SVGID_27_"  overflow="visible"/>
	</clipPath>
	<path clip-path="url(#SVGID_28_)" fill="#474747" d="M1666.331,400.422h76.493c5.104,0,9.242-4.138,9.242-9.242v-37.799
		c0-5.105-4.138-9.242-9.242-9.242h-76.493c-5.104,0-9.242,4.137-9.242,9.242v37.799
		C1657.089,396.284,1661.227,400.422,1666.331,400.422"/>
	<path clip-path="url(#SVGID_28_)" fill="none" stroke="#1A1A1A" stroke-width="3" stroke-miterlimit="10" d="M1666.331,400.422
		h76.493c5.104,0,9.242-4.138,9.242-9.242v-37.799c0-5.105-4.138-9.242-9.242-9.242h-76.493c-5.104,0-9.242,4.137-9.242,9.242
		v37.799C1657.089,396.284,1661.227,400.422,1666.331,400.422z"/>
	<rect x="1212.102" y="340.621" clip-path="url(#SVGID_28_)" fill="#474747" width="45.729" height="50.127"/>
	
		<rect x="1212.102" y="340.621" clip-path="url(#SVGID_28_)" fill="none" stroke="#1A1A1A" stroke-width="3" stroke-miterlimit="10" width="45.729" height="50.127"/>
	<path clip-path="url(#SVGID_28_)" fill="#474747" d="M1176.045,390.469v-37.256c0-3.555-2.882-6.436-6.436-6.436h-35.498
		c-3.554,0-6.436,2.881-6.436,6.436v37.256c0,3.554,2.882,6.436,6.436,6.436h35.498
		C1173.163,396.905,1176.045,394.023,1176.045,390.469"/>
	<path clip-path="url(#SVGID_28_)" fill="none" stroke="#1A1A1A" stroke-width="3" stroke-miterlimit="10" d="M1176.045,390.469
		v-37.256c0-3.555-2.882-6.436-6.436-6.436h-35.498c-3.554,0-6.436,2.881-6.436,6.436v37.256c0,3.554,2.882,6.436,6.436,6.436
		h35.498C1173.163,396.905,1176.045,394.023,1176.045,390.469z"/>
	<path clip-path="url(#SVGID_28_)" fill="#474747" d="M1326.354,340.465v-10.497c0-3.345-2.711-6.056-6.056-6.056h-33.617
		c-3.346,0-6.057,2.711-6.057,6.056v10.497c0,3.345,2.711,6.056,6.057,6.056h33.617
		C1323.644,346.521,1326.354,343.811,1326.354,340.465"/>
	<path clip-path="url(#SVGID_28_)" fill="none" stroke="#1A1A1A" stroke-width="3" stroke-miterlimit="10" d="M1326.354,340.465
		v-10.497c0-3.345-2.711-6.056-6.056-6.056h-33.617c-3.346,0-6.057,2.711-6.057,6.056v10.497c0,3.345,2.711,6.056,6.057,6.056
		h33.617C1323.644,346.521,1326.354,343.811,1326.354,340.465z"/>
	<rect x="1299.092" y="358.209" clip-path="url(#SVGID_28_)" fill="#474747" width="38.767" height="19.971"/>
	
		<rect x="1299.092" y="358.209" clip-path="url(#SVGID_28_)" fill="none" stroke="#1A1A1A" stroke-width="3" stroke-miterlimit="10" width="38.767" height="19.971"/>
	<rect x="1302.015" y="392.507" clip-path="url(#SVGID_28_)" fill="#474747" width="63.105" height="15.745"/>
	
		<rect x="1302.015" y="392.507" clip-path="url(#SVGID_28_)" fill="none" stroke="#1A1A1A" stroke-width="3" stroke-miterlimit="10" width="63.105" height="15.745"/>
	<rect x="798.772" y="335.345" clip-path="url(#SVGID_28_)" fill="#474747" width="63.318" height="46.609"/>
	
		<rect x="798.772" y="335.345" clip-path="url(#SVGID_28_)" fill="none" stroke="#1A1A1A" stroke-width="3" stroke-miterlimit="10" width="63.318" height="46.609"/>
	<rect x="771.51" y="199.914" clip-path="url(#SVGID_28_)" fill="#474747" width="45.73" height="50.127"/>
	
		<rect x="771.51" y="199.914" clip-path="url(#SVGID_28_)" fill="none" stroke="#1A1A1A" stroke-width="3" stroke-miterlimit="10" width="45.73" height="50.127"/>
	<rect x="713.227" y="256.487" clip-path="url(#SVGID_28_)" fill="#474747" width="45.73" height="11.433"/>
	
		<rect x="713.227" y="256.487" clip-path="url(#SVGID_28_)" fill="none" stroke="#1A1A1A" stroke-width="3" stroke-miterlimit="10" width="45.73" height="11.433"/>
	<rect x="715.44" y="199.914" clip-path="url(#SVGID_28_)" fill="#474747" width="45.517" height="34.297"/>
	
		<rect x="715.44" y="199.914" clip-path="url(#SVGID_28_)" fill="none" stroke="#1A1A1A" stroke-width="3" stroke-miterlimit="10" width="45.517" height="34.297"/>
	<rect x="831.75" y="88.227" clip-path="url(#SVGID_28_)" fill="#474747" width="35.617" height="22.865"/>
	
		<rect x="831.75" y="88.227" clip-path="url(#SVGID_28_)" fill="none" stroke="#1A1A1A" stroke-width="3" stroke-miterlimit="10" width="35.617" height="22.865"/>
	<path clip-path="url(#SVGID_28_)" fill="#474747" d="M957.068,102.656V76.436c0-4.658-3.777-8.435-8.436-8.435h-48.206
		c-4.659,0-8.436,3.777-8.436,8.435v26.221c0,4.659,3.777,8.436,8.436,8.436h48.206
		C953.292,111.092,957.068,107.315,957.068,102.656"/>
	<path clip-path="url(#SVGID_28_)" fill="none" stroke="#1A1A1A" stroke-width="3" stroke-miterlimit="10" d="M957.068,102.656
		V76.436c0-4.658-3.777-8.435-8.436-8.435h-48.206c-4.659,0-8.436,3.777-8.436,8.435v26.221c0,4.659,3.777,8.436,8.436,8.436h48.206
		C953.292,111.092,957.068,107.315,957.068,102.656z"/>
	<path clip-path="url(#SVGID_28_)" fill="#474747" d="M1041.493,101.882V77.21c0-5.086-4.124-9.21-9.21-9.21h-45.778
		c-5.087,0-9.21,4.124-9.21,9.21v24.672c0,5.086,4.123,9.21,9.21,9.21h45.778C1037.369,111.092,1041.493,106.968,1041.493,101.882"
		/>
	<path clip-path="url(#SVGID_28_)" fill="none" stroke="#1A1A1A" stroke-width="3" stroke-miterlimit="10" d="M1041.493,101.882
		V77.21c0-5.086-4.124-9.21-9.21-9.21h-45.778c-5.087,0-9.21,4.124-9.21,9.21v24.672c0,5.086,4.123,9.21,9.21,9.21h45.778
		C1037.369,111.092,1041.493,106.968,1041.493,101.882z"/>
	<rect x="1704.393" y="69.759" clip-path="url(#SVGID_28_)" fill="#474747" width="64.383" height="43.971"/>
	
		<rect x="1704.393" y="69.759" clip-path="url(#SVGID_28_)" fill="none" stroke="#1A1A1A" stroke-width="3" stroke-miterlimit="10" width="64.383" height="43.971"/>
	<rect x="1253.505" y="185.843" clip-path="url(#SVGID_28_)" fill="#474747" width="30.709" height="42.014"/>
	
		<rect x="1253.505" y="185.843" clip-path="url(#SVGID_28_)" fill="none" stroke="#1A1A1A" stroke-width="3" stroke-miterlimit="10" width="30.709" height="42.014"/>
	<rect x="192.85" y="419.769" clip-path="url(#SVGID_28_)" fill="#474747" width="45.73" height="36.936"/>
	
		<rect x="192.85" y="419.769" clip-path="url(#SVGID_28_)" fill="none" stroke="#1A1A1A" stroke-width="3" stroke-miterlimit="10" width="45.73" height="36.936"/>
	<rect x="483.06" y="292.253" clip-path="url(#SVGID_28_)" fill="#474747" width="69.474" height="36.056"/>
	
		<rect x="483.06" y="292.253" clip-path="url(#SVGID_28_)" fill="none" stroke="#1A1A1A" stroke-width="3" stroke-miterlimit="10" width="69.474" height="36.056"/>
	<rect x="1110.088" y="674.802" clip-path="url(#SVGID_28_)" fill="#474747" width="56.283" height="36.058"/>
	
		<rect x="1110.088" y="674.802" clip-path="url(#SVGID_28_)" fill="none" stroke="#1A1A1A" stroke-width="3" stroke-miterlimit="10" width="56.283" height="36.058"/>
	<rect x="1110.088" y="717.014" clip-path="url(#SVGID_28_)" fill="#474747" width="56.283" height="32.539"/>
	
		<rect x="1110.088" y="717.014" clip-path="url(#SVGID_28_)" fill="none" stroke="#1A1A1A" stroke-width="3" stroke-miterlimit="10" width="56.283" height="32.539"/>
	<rect x="1216.498" y="674.802" clip-path="url(#SVGID_28_)" fill="#474747" width="63.318" height="34.298"/>
	
		<rect x="1216.498" y="674.802" clip-path="url(#SVGID_28_)" fill="none" stroke="#1A1A1A" stroke-width="3" stroke-miterlimit="10" width="63.318" height="34.298"/>
	<path clip-path="url(#SVGID_28_)" fill="#474747" d="M1759.102,597.021v-22.083c0-5.559-4.506-10.063-10.064-10.063h-71.332
		c-5.558,0-10.063,4.505-10.063,10.063v22.083c0,5.559,4.506,10.064,10.063,10.064h71.332
		C1754.596,607.086,1759.102,602.58,1759.102,597.021"/>
	<path clip-path="url(#SVGID_28_)" fill="none" stroke="#1A1A1A" stroke-width="3" stroke-miterlimit="10" d="M1759.102,597.021
		v-22.083c0-5.559-4.506-10.063-10.064-10.063h-71.332c-5.558,0-10.063,4.505-10.063,10.063v22.083
		c0,5.559,4.506,10.064,10.063,10.064h71.332C1754.596,607.086,1759.102,602.58,1759.102,597.021z"/>
	<path clip-path="url(#SVGID_28_)" fill="#474747" d="M1629.826,613.601v-33.256c0-4.659-3.776-8.436-8.436-8.436h-35.015
		c-4.658,0-8.436,3.776-8.436,8.436v33.256c0,4.659,3.777,8.436,8.436,8.436h35.015
		C1626.05,622.036,1629.826,618.26,1629.826,613.601"/>
	<path clip-path="url(#SVGID_28_)" fill="none" stroke="#1A1A1A" stroke-width="6" stroke-miterlimit="10" d="M1629.826,613.601
		v-33.256c0-4.659-3.776-8.436-8.436-8.436h-35.015c-4.658,0-8.436,3.776-8.436,8.436v33.256c0,4.659,3.777,8.436,8.436,8.436
		h35.015C1626.05,622.036,1629.826,618.26,1629.826,613.601z"/>
	<path clip-path="url(#SVGID_28_)" fill="#474747" d="M1774.052,957.649v-41.56c0-5.522-4.478-10-10-10h-29.247
		c-5.524,0-10,4.478-10,10v41.56c0,5.522,4.476,10,10,10h29.247C1769.574,967.649,1774.052,963.172,1774.052,957.649"/>
	<path clip-path="url(#SVGID_28_)" fill="none" stroke="#1A1A1A" stroke-width="3" stroke-miterlimit="10" d="M1774.052,957.649
		v-41.56c0-5.522-4.478-10-10-10h-29.247c-5.524,0-10,4.478-10,10v41.56c0,5.522,4.476,10,10,10h29.247
		C1769.574,967.649,1774.052,963.172,1774.052,957.649z"/>
	<rect x="1414.765" y="1039.806" clip-path="url(#SVGID_28_)" fill="#474747" width="54.524" height="38.694"/>
	
		<rect x="1414.765" y="1039.806" clip-path="url(#SVGID_28_)" fill="none" stroke="#1A1A1A" stroke-width="3" stroke-miterlimit="10" width="54.524" height="38.694"/>
	<rect x="1353.205" y="1059.152" clip-path="url(#SVGID_28_)" fill="#474747" width="53.646" height="19.348"/>
	
		<rect x="1353.205" y="1059.152" clip-path="url(#SVGID_28_)" fill="none" stroke="#1A1A1A" stroke-width="3" stroke-miterlimit="10" width="53.646" height="19.348"/>
	<rect x="1214.739" y="968.529" clip-path="url(#SVGID_28_)" fill="#474747" width="93.219" height="43.971"/>
	
		<rect x="1214.739" y="968.529" clip-path="url(#SVGID_28_)" fill="none" stroke="#1A1A1A" stroke-width="3" stroke-miterlimit="10" width="93.219" height="43.971"/>
	<rect x="1584.097" y="660.73" clip-path="url(#SVGID_28_)" fill="#474747" width="55.403" height="19.348"/>
	
		<rect x="1584.097" y="660.73" clip-path="url(#SVGID_28_)" fill="none" stroke="#1A1A1A" stroke-width="3" stroke-miterlimit="10" width="55.403" height="19.348"/>
	<path clip-path="url(#SVGID_28_)" fill="#474747" d="M1680.833,741.302v-22.192c0-3.101-2.513-5.613-5.613-5.613h-45.057
		c-3.101,0-5.613,2.513-5.613,5.613v22.192c0,3.1,2.513,5.612,5.613,5.612h45.057
		C1678.32,746.914,1680.833,744.401,1680.833,741.302"/>
	<path clip-path="url(#SVGID_28_)" fill="none" stroke="#1A1A1A" stroke-width="3" stroke-miterlimit="10" d="M1680.833,741.302
		v-22.192c0-3.101-2.513-5.613-5.613-5.613h-45.057c-3.101,0-5.613,2.513-5.613,5.613v22.192c0,3.1,2.513,5.612,5.613,5.612h45.057
		C1678.32,746.914,1680.833,744.401,1680.833,741.302z"/>
	<path clip-path="url(#SVGID_28_)" fill="#474747" d="M1060.84,830.31v-33.998c0-4.454-3.61-8.064-8.064-8.064H951.062
		c-4.454,0-8.064,3.61-8.064,8.064v33.998c0,4.454,3.61,8.064,8.064,8.064h101.713C1057.229,838.374,1060.84,834.764,1060.84,830.31
		"/>
	<path clip-path="url(#SVGID_28_)" fill="none" stroke="#1A1A1A" stroke-width="3" stroke-miterlimit="10" d="M1060.84,830.31
		v-33.998c0-4.454-3.61-8.064-8.064-8.064H951.062c-4.454,0-8.064,3.61-8.064,8.064v33.998c0,4.454,3.61,8.064,8.064,8.064h101.713
		C1057.229,838.374,1060.84,834.764,1060.84,830.31z"/>
	<rect x="813.722" y="811.991" clip-path="url(#SVGID_28_)" fill="#474747" width="56.283" height="87.941"/>
	
		<rect x="813.722" y="811.991" clip-path="url(#SVGID_28_)" fill="none" stroke="#1A1A1A" stroke-width="5" stroke-miterlimit="10" width="56.283" height="87.941"/>
	<path clip-path="url(#SVGID_28_)" fill="#474747" d="M628.164,679.564v-44.702c0-3.198-2.592-5.791-5.79-5.791h-44.703
		c-3.197,0-5.79,2.593-5.79,5.791v44.702c0,3.198,2.593,5.79,5.79,5.79h44.703C625.572,685.354,628.164,682.763,628.164,679.564"/>
	<path clip-path="url(#SVGID_28_)" fill="none" stroke="#1A1A1A" stroke-width="4" stroke-miterlimit="10" d="M628.164,679.564
		v-44.702c0-3.198-2.592-5.791-5.79-5.791h-44.703c-3.197,0-5.79,2.593-5.79,5.791v44.702c0,3.198,2.593,5.79,5.79,5.79h44.703
		C625.572,685.354,628.164,682.763,628.164,679.564z"/>
	<path clip-path="url(#SVGID_28_)" fill="#474747" d="M715.667,673.849v-44.703c0-3.197-2.592-5.79-5.79-5.79h-44.703
		c-3.197,0-5.79,2.593-5.79,5.79v44.703c0,3.197,2.593,5.79,5.79,5.79h44.703C713.074,679.639,715.667,677.046,715.667,673.849"/>
	<path clip-path="url(#SVGID_28_)" fill="none" stroke="#1A1A1A" stroke-width="4" stroke-miterlimit="10" d="M715.667,673.849
		v-44.703c0-3.197-2.592-5.79-5.79-5.79h-44.703c-3.197,0-5.79,2.593-5.79,5.79v44.703c0,3.197,2.593,5.79,5.79,5.79h44.703
		C713.074,679.639,715.667,677.046,715.667,673.849z"/>
	<path clip-path="url(#SVGID_28_)" fill="#474747" d="M764.915,643.068v-13.923c0-3.197-2.593-5.79-5.791-5.79H732.89
		c-3.198,0-5.79,2.593-5.79,5.79v13.923c0,3.198,2.592,5.79,5.79,5.79h26.234C762.322,648.858,764.915,646.267,764.915,643.068"/>
	<path clip-path="url(#SVGID_28_)" fill="none" stroke="#1A1A1A" stroke-width="4" stroke-miterlimit="10" d="M764.915,643.068
		v-13.923c0-3.197-2.593-5.79-5.791-5.79H732.89c-3.198,0-5.79,2.593-5.79,5.79v13.923c0,3.198,2.592,5.79,5.79,5.79h26.234
		C762.322,648.858,764.915,646.267,764.915,643.068z"/>
	<path clip-path="url(#SVGID_28_)" fill="#474747" d="M764.915,674.728v-13.923c0-3.197-2.593-5.79-5.791-5.79H732.89
		c-3.198,0-5.79,2.593-5.79,5.79v13.923c0,3.198,2.592,5.79,5.79,5.79h26.234C762.322,680.518,764.915,677.926,764.915,674.728"/>
	<path clip-path="url(#SVGID_28_)" fill="none" stroke="#1A1A1A" stroke-width="4" stroke-miterlimit="10" d="M764.915,674.728
		v-13.923c0-3.197-2.593-5.79-5.791-5.79H732.89c-3.198,0-5.79,2.593-5.79,5.79v13.923c0,3.198,2.592,5.79,5.79,5.79h26.234
		C762.322,680.518,764.915,677.926,764.915,674.728z"/>
	<path clip-path="url(#SVGID_28_)" fill="#474747" d="M703.355,413.241v-31.213c0-3.198-2.593-5.79-5.791-5.79H578.721
		c-3.198,0-5.79,2.592-5.79,5.79v31.213c0,3.198,2.592,5.791,5.79,5.791h118.843C700.762,419.032,703.355,416.439,703.355,413.241"
		/>
	<path clip-path="url(#SVGID_28_)" fill="none" stroke="#1A1A1A" stroke-width="4" stroke-miterlimit="10" d="M703.355,413.241
		v-31.213c0-3.198-2.593-5.79-5.791-5.79H578.721c-3.198,0-5.79,2.592-5.79,5.79v31.213c0,3.198,2.592,5.791,5.79,5.791h118.843
		C700.762,419.032,703.355,416.439,703.355,413.241z"/>
	<path clip-path="url(#SVGID_28_)" fill="#474747" d="M708.631,471.581v-10.405c0-3.198-2.592-5.79-5.791-5.79H586.026
		c-3.198,0-5.791,2.592-5.791,5.79v10.405c0,3.198,2.593,5.79,5.791,5.79H702.84C706.039,477.371,708.631,474.779,708.631,471.581"
		/>
	<path clip-path="url(#SVGID_28_)" fill="none" stroke="#1A1A1A" stroke-width="4" stroke-miterlimit="10" d="M708.631,471.581
		v-10.405c0-3.198-2.592-5.79-5.791-5.79H586.026c-3.198,0-5.791,2.592-5.791,5.79v10.405c0,3.198,2.593,5.79,5.791,5.79H702.84
		C706.039,477.371,708.631,474.779,708.631,471.581z"/>
	<path clip-path="url(#SVGID_28_)" fill="#474747" d="M410.507,555.126v-33.454c0-3.198-2.592-5.791-5.79-5.791h-56.802
		c-3.198,0-5.79,2.593-5.79,5.791v33.454c0,3.198,2.592,5.79,5.79,5.79h56.802C407.915,560.916,410.507,558.324,410.507,555.126"/>
	<path clip-path="url(#SVGID_28_)" fill="none" stroke="#1A1A1A" stroke-width="4" stroke-miterlimit="10" d="M410.507,555.126
		v-33.454c0-3.198-2.592-5.791-5.79-5.791h-56.802c-3.198,0-5.79,2.593-5.79,5.791v33.454c0,3.198,2.592,5.79,5.79,5.79h56.802
		C407.915,560.916,410.507,558.324,410.507,555.126z"/>
	<path clip-path="url(#SVGID_28_)" fill="#474747" d="M353.345,644.446v-71.202c0-0.98-0.794-1.774-1.774-1.774h-34.267
		c-0.98,0-1.774,0.794-1.774,1.774v71.202c0,0.979,0.794,1.774,1.774,1.774h34.267C352.551,646.221,353.345,645.426,353.345,644.446
		"/>
	<path clip-path="url(#SVGID_28_)" fill="none" stroke="#1A1A1A" stroke-width="4" stroke-miterlimit="10" d="M353.345,644.446
		v-71.202c0-0.98-0.794-1.774-1.774-1.774h-34.267c-0.98,0-1.774,0.794-1.774,1.774v71.202c0,0.979,0.794,1.774,1.774,1.774h34.267
		C352.551,646.221,353.345,645.426,353.345,644.446z"/>
	<path clip-path="url(#SVGID_28_)" fill="#474747" d="M423.698,633.395v-31.511c0-3.198-2.592-5.79-5.79-5.79h-46.461
		c-3.198,0-5.791,2.592-5.791,5.79v31.511c0,3.198,2.593,5.79,5.791,5.79h46.461C421.106,639.185,423.698,636.593,423.698,633.395"
		/>
	<path clip-path="url(#SVGID_28_)" fill="none" stroke="#1A1A1A" stroke-width="4" stroke-miterlimit="10" d="M423.698,633.395
		v-31.511c0-3.198-2.592-5.79-5.79-5.79h-46.461c-3.198,0-5.791,2.592-5.791,5.79v31.511c0,3.198,2.593,5.79,5.791,5.79h46.461
		C421.106,639.185,423.698,636.593,423.698,633.395z"/>
	<path clip-path="url(#SVGID_28_)" fill="#474747" d="M187.134,650.983v-27.114c0-3.197-2.593-5.79-5.791-5.79H91.791
		c-3.199,0-5.791,2.593-5.791,5.79v27.114c0,3.197,2.592,5.79,5.791,5.79h89.552C184.541,656.773,187.134,654.181,187.134,650.983"
		/>
	<path clip-path="url(#SVGID_28_)" fill="none" stroke="#1A1A1A" stroke-width="4" stroke-miterlimit="10" d="M187.134,650.983
		v-27.114c0-3.197-2.593-5.79-5.791-5.79H91.791c-3.199,0-5.791,2.593-5.791,5.79v27.114c0,3.197,2.592,5.79,5.791,5.79h89.552
		C184.541,656.773,187.134,654.181,187.134,650.983z"/>
	<path clip-path="url(#SVGID_28_)" fill="#474747" d="M109.745,547.211v-27.114c0-3.198-2.593-5.79-5.791-5.79H91.791
		c-3.198,0-5.791,2.592-5.791,5.79v27.114c0,3.198,2.593,5.791,5.791,5.791h12.163C107.151,553.002,109.745,550.409,109.745,547.211
		"/>
	<path clip-path="url(#SVGID_28_)" fill="none" stroke="#1A1A1A" stroke-width="4" stroke-miterlimit="10" d="M109.745,547.211
		v-27.114c0-3.198-2.593-5.79-5.791-5.79H91.791c-3.198,0-5.791,2.592-5.791,5.79v27.114c0,3.198,2.593,5.791,5.791,5.791h12.163
		C107.151,553.002,109.745,550.409,109.745,547.211z"/>
	<path clip-path="url(#SVGID_28_)" fill="#474747" d="M126.454,904.257v-31.511c0-3.198-2.593-5.791-5.791-5.791H91.791
		c-3.198,0-5.791,2.593-5.791,5.791v31.511c0,3.198,2.593,5.79,5.791,5.79h28.872C123.86,910.047,126.454,907.455,126.454,904.257"
		/>
	<path clip-path="url(#SVGID_28_)" fill="none" stroke="#1A1A1A" stroke-width="4" stroke-miterlimit="10" d="M126.454,904.257
		v-31.511c0-3.198-2.593-5.791-5.791-5.791H91.791c-3.198,0-5.791,2.593-5.791,5.791v31.511c0,3.198,2.593,5.79,5.791,5.79h28.872
		C123.86,910.047,126.454,907.455,126.454,904.257z"/>
	<path clip-path="url(#SVGID_28_)" fill="#474747" d="M174.822,861.165v-13.923c0-3.197-2.592-5.79-5.791-5.79h-26.234
		c-3.198,0-5.79,2.593-5.79,5.79v13.923c0,3.198,2.592,5.79,5.79,5.79h26.234C172.23,866.955,174.822,864.363,174.822,861.165"/>
	<path clip-path="url(#SVGID_28_)" fill="none" stroke="#1A1A1A" stroke-width="4" stroke-miterlimit="10" d="M174.822,861.165
		v-13.923c0-3.197-2.592-5.79-5.791-5.79h-26.234c-3.198,0-5.79,2.593-5.79,5.79v13.923c0,3.198,2.592,5.79,5.79,5.79h26.234
		C172.23,866.955,174.822,864.363,174.822,861.165z"/>
	<rect x="1769.104" y="191.958" clip-path="url(#SVGID_28_)" fill="#474747" width="45.729" height="50.127"/>
	
		<rect x="1769.104" y="191.958" clip-path="url(#SVGID_28_)" fill="none" stroke="#1A1A1A" stroke-width="3" stroke-miterlimit="10" width="45.729" height="50.127"/>
	<path clip-path="url(#SVGID_28_)" fill="#474747" d="M1883.357,191.803v-10.497c0-3.344-2.712-6.056-6.057-6.056h-33.617
		c-3.346,0-6.057,2.712-6.057,6.056v10.497c0,3.345,2.711,6.057,6.057,6.057h33.617
		C1880.646,197.86,1883.357,195.147,1883.357,191.803"/>
	<path clip-path="url(#SVGID_28_)" fill="none" stroke="#1A1A1A" stroke-width="3" stroke-miterlimit="10" d="M1883.357,191.803
		v-10.497c0-3.344-2.712-6.056-6.057-6.056h-33.617c-3.346,0-6.057,2.712-6.057,6.056v10.497c0,3.345,2.711,6.057,6.057,6.057
		h33.617C1880.646,197.86,1883.357,195.147,1883.357,191.803z"/>
	<rect x="1856.094" y="209.547" clip-path="url(#SVGID_28_)" fill="#474747" width="38.767" height="19.972"/>
	
		<rect x="1856.094" y="209.547" clip-path="url(#SVGID_28_)" fill="none" stroke="#1A1A1A" stroke-width="3" stroke-miterlimit="10" width="38.767" height="19.972"/>
	<rect x="1859.018" y="243.845" clip-path="url(#SVGID_28_)" fill="#474747" width="63.105" height="15.744"/>
	
		<rect x="1859.018" y="243.845" clip-path="url(#SVGID_28_)" fill="none" stroke="#1A1A1A" stroke-width="3" stroke-miterlimit="10" width="63.105" height="15.744"/>
	<rect x="981.196" y="1035.427" clip-path="url(#SVGID_28_)" fill="#474747" width="54.523" height="38.694"/>
	
		<rect x="981.196" y="1035.427" clip-path="url(#SVGID_28_)" fill="none" stroke="#1A1A1A" stroke-width="3" stroke-miterlimit="10" width="54.523" height="38.694"/>
	<rect x="919.635" y="1054.774" clip-path="url(#SVGID_28_)" fill="#474747" width="53.646" height="19.347"/>
	
		<rect x="919.635" y="1054.774" clip-path="url(#SVGID_28_)" fill="none" stroke="#1A1A1A" stroke-width="3" stroke-miterlimit="10" width="53.646" height="19.347"/>
	<rect x="1486.697" y="65.884" clip-path="url(#SVGID_28_)" fill="#474747" width="45.729" height="50.127"/>
	
		<rect x="1486.697" y="65.884" clip-path="url(#SVGID_28_)" fill="none" stroke="#1A1A1A" stroke-width="3" stroke-miterlimit="10" width="45.729" height="50.127"/>
	<rect x="1430.414" y="111.458" clip-path="url(#SVGID_28_)" fill="#474747" width="45.729" height="11.432"/>
	
		<rect x="1430.414" y="111.458" clip-path="url(#SVGID_28_)" fill="none" stroke="#1A1A1A" stroke-width="3" stroke-miterlimit="10" width="45.729" height="11.432"/>
	<rect x="1430.626" y="65.884" clip-path="url(#SVGID_28_)" fill="#474747" width="45.517" height="34.297"/>
	
		<rect x="1430.626" y="65.884" clip-path="url(#SVGID_28_)" fill="none" stroke="#1A1A1A" stroke-width="3" stroke-miterlimit="10" width="45.517" height="34.297"/>
	<path clip-path="url(#SVGID_28_)" fill="#474747" d="M682.638,1000.308v-31.213c0-3.198-2.592-5.791-5.79-5.791H558.004
		c-3.198,0-5.79,2.593-5.79,5.791v31.213c0,3.198,2.592,5.79,5.79,5.79h118.844C680.046,1006.098,682.638,1003.506,682.638,1000.308
		"/>
	<path clip-path="url(#SVGID_28_)" fill="none" stroke="#1A1A1A" stroke-width="4" stroke-miterlimit="10" d="M682.638,1000.308
		v-31.213c0-3.198-2.592-5.791-5.79-5.791H558.004c-3.198,0-5.79,2.593-5.79,5.791v31.213c0,3.198,2.592,5.79,5.79,5.79h118.844
		C680.046,1006.098,682.638,1003.506,682.638,1000.308z"/>
	<path clip-path="url(#SVGID_28_)" fill="#474747" d="M687.915,1058.647v-10.405c0-3.197-2.593-5.79-5.791-5.79H565.31
		c-3.199,0-5.791,2.593-5.791,5.79v10.405c0,3.198,2.592,5.79,5.791,5.79h116.814
		C685.322,1064.438,687.915,1061.846,687.915,1058.647"/>
	<path clip-path="url(#SVGID_28_)" fill="none" stroke="#1A1A1A" stroke-width="4" stroke-miterlimit="10" d="M687.915,1058.647
		v-10.405c0-3.197-2.593-5.79-5.791-5.79H565.31c-3.199,0-5.791,2.593-5.791,5.79v10.405c0,3.198,2.592,5.79,5.791,5.79h116.814
		C685.322,1064.438,687.915,1061.846,687.915,1058.647z"/>
	<path clip-path="url(#SVGID_28_)" fill="#474747" d="M452.115,891.418V857.42c0-4.453-3.61-8.064-8.064-8.064H342.337
		c-4.454,0-8.064,3.611-8.064,8.064v33.998c0,4.454,3.61,8.064,8.064,8.064h101.714
		C448.505,899.482,452.115,895.872,452.115,891.418"/>
	<path clip-path="url(#SVGID_28_)" fill="none" stroke="#1A1A1A" stroke-width="3" stroke-miterlimit="10" d="M452.115,891.418
		V857.42c0-4.453-3.61-8.064-8.064-8.064H342.337c-4.454,0-8.064,3.611-8.064,8.064v33.998c0,4.454,3.61,8.064,8.064,8.064h101.714
		C448.505,899.482,452.115,895.872,452.115,891.418z"/>
	<rect x="203.682" y="93.391" clip-path="url(#SVGID_28_)" fill="#474747" width="69.475" height="36.057"/>
	
		<rect x="203.682" y="93.391" clip-path="url(#SVGID_28_)" fill="none" stroke="#1A1A1A" stroke-width="3" stroke-miterlimit="10" width="69.475" height="36.057"/>
	<rect x="460.393" y="70.394" clip-path="url(#SVGID_28_)" fill="#474747" width="45.73" height="11.432"/>
	
		<rect x="460.393" y="70.394" clip-path="url(#SVGID_28_)" fill="none" stroke="#1A1A1A" stroke-width="3" stroke-miterlimit="10" width="45.73" height="11.432"/>
	<rect x="460.606" y="30.819" clip-path="url(#SVGID_28_)" fill="#474747" width="45.517" height="34.297"/>
	
		<rect x="460.606" y="30.819" clip-path="url(#SVGID_28_)" fill="none" stroke="#1A1A1A" stroke-width="3" stroke-miterlimit="10" width="45.517" height="34.297"/>
	<path clip-path="url(#SVGID_28_)" fill="#474747" d="M36.356,41.944V14.83c0-3.198-2.592-5.79-5.79-5.79H18.402
		c-3.198,0-5.79,2.592-5.79,5.79v27.114c0,3.198,2.592,5.791,5.79,5.791h12.164C33.764,47.735,36.356,45.142,36.356,41.944"/>
	<path clip-path="url(#SVGID_28_)" fill="none" stroke="#1A1A1A" stroke-width="4" stroke-miterlimit="10" d="M36.356,41.944V14.83
		c0-3.198-2.592-5.79-5.79-5.79H18.402c-3.198,0-5.79,2.592-5.79,5.79v27.114c0,3.198,2.592,5.791,5.79,5.791h12.164
		C33.764,47.735,36.356,45.142,36.356,41.944z"/>
	<rect x="1802.859" y="1044.937" clip-path="url(#SVGID_28_)" fill="#474747" width="56.282" height="33.419"/>
	
		<rect x="1802.859" y="1044.937" clip-path="url(#SVGID_28_)" fill="none" stroke="#1A1A1A" stroke-width="3" stroke-miterlimit="10" width="56.282" height="33.419"/>
	<rect x="1203.146" y="515.819" clip-path="url(#SVGID_28_)" fill="#474747" width="100.354" height="27.681"/>
	
		<rect x="1203.146" y="515.819" clip-path="url(#SVGID_28_)" fill="none" stroke="#1A1A1A" stroke-width="3" stroke-miterlimit="10" width="100.354" height="27.681"/>
	<rect x="83.135" y="249.758" clip-path="url(#SVGID_28_)" fill="#474747" width="45.73" height="36.936"/>
	
		<rect x="83.135" y="249.758" clip-path="url(#SVGID_28_)" fill="none" stroke="#1A1A1A" stroke-width="3" stroke-miterlimit="10" width="45.73" height="36.936"/>
	<rect x="1407.261" y="845.208" clip-path="url(#SVGID_28_)" fill="#474747" width="93.22" height="43.971"/>
	
		<rect x="1407.261" y="845.208" clip-path="url(#SVGID_28_)" fill="none" stroke="#1A1A1A" stroke-width="3" stroke-miterlimit="10" width="93.22" height="43.971"/>
	<rect x="1859.5" y="733.208" clip-path="url(#SVGID_28_)" fill="#474747" width="60.98" height="43.971"/>
	
		<rect x="1859.5" y="733.208" clip-path="url(#SVGID_28_)" fill="none" stroke="#1A1A1A" stroke-width="3" stroke-miterlimit="10" width="60.98" height="43.971"/>
	<rect x="1889.5" y="791.337" clip-path="url(#SVGID_28_)" fill="#474747" width="30.852" height="72.163"/>
	
		<rect x="1889.5" y="791.337" clip-path="url(#SVGID_28_)" fill="none" stroke="#1A1A1A" stroke-width="3" stroke-miterlimit="10" width="30.852" height="72.163"/>
	<path clip-path="url(#SVGID_28_)" fill="#CCCCCC" d="M1397.258,412.264h146.286c13.055,0,23.638-10.583,23.638-23.638
		c0-0.036-0.029-0.066-0.066-0.066h-169.857c-0.036,0-0.065,0.03-0.065,0.066v23.573
		C1397.192,412.235,1397.222,412.264,1397.258,412.264"/>
	<path clip-path="url(#SVGID_28_)" fill="none" stroke="#333333" stroke-miterlimit="10" d="M1397.258,412.264h146.286
		c13.055,0,23.638-10.583,23.638-23.638c0-0.036-0.029-0.066-0.066-0.066h-169.857c-0.036,0-0.065,0.03-0.065,0.066v23.573
		C1397.192,412.235,1397.222,412.264,1397.258,412.264z"/>
	<path clip-path="url(#SVGID_28_)" fill="#808080" d="M1317.642,887.931L1317.642,887.931c8.608,0,15.588-6.979,15.588-15.588
		v-25.047h-29.799v26.423C1303.431,881.567,1309.793,887.931,1317.642,887.931"/>
	<path clip-path="url(#SVGID_28_)" fill="none" stroke="#000000" stroke-miterlimit="10" d="M1317.642,887.931L1317.642,887.931
		c8.608,0,15.588-6.979,15.588-15.588v-25.047h-29.799v26.423C1303.431,881.567,1309.793,887.931,1317.642,887.931z"/>
	<polygon clip-path="url(#SVGID_28_)" fill="#333333" points="1323.863,850.903 1312.396,850.903 1306.662,860.834 
		1312.396,870.765 1323.863,870.765 1329.596,860.834 	"/>
	<polygon clip-path="url(#SVGID_28_)" fill="none" stroke="#4D4D4D" stroke-miterlimit="10" points="1323.863,850.903 
		1312.396,850.903 1306.662,860.834 1312.396,870.765 1323.863,870.765 1329.596,860.834 	"/>
	<rect x="1308.597" y="875.765" clip-path="url(#SVGID_28_)" fill="#333333" width="20" height="4"/>
	
		<rect x="1308.597" y="875.765" clip-path="url(#SVGID_28_)" fill="none" stroke="#4D4D4D" stroke-miterlimit="10" width="20" height="4"/>
	<rect x="1402.597" y="393.765" clip-path="url(#SVGID_28_)" fill="#333333" width="115" height="14"/>
	
		<rect x="1402.597" y="393.765" clip-path="url(#SVGID_28_)" fill="none" stroke="#333333" stroke-miterlimit="10" width="115" height="14"/>
	<rect x="1521.597" y="393.765" clip-path="url(#SVGID_28_)" fill="#333333" width="21" height="14"/>
	
		<rect x="1521.597" y="393.765" clip-path="url(#SVGID_28_)" fill="none" stroke="#333333" stroke-miterlimit="10" width="21" height="14"/>
	<rect x="1844.406" y="496.998" clip-path="url(#SVGID_28_)" fill="#666666" width="48.299" height="29.122"/>
	
		<rect x="1844.406" y="496.998" clip-path="url(#SVGID_28_)" fill="none" stroke="#1A1A1A" stroke-miterlimit="10" width="48.299" height="29.122"/>
	<rect x="1846.802" y="499.573" clip-path="url(#SVGID_28_)" fill="#666666" width="43" height="23"/>
	
		<rect x="1846.802" y="499.573" clip-path="url(#SVGID_28_)" fill="none" stroke="#808080" stroke-miterlimit="10" width="43" height="23"/>
	<path clip-path="url(#SVGID_28_)" fill="#333333" d="M1638.25,1026.918h27.091c9.163,0,16.592-7.429,16.592-16.593
		s-7.429-16.593-16.592-16.593h-27.091c-9.163,0-16.592,7.429-16.592,16.593S1629.087,1026.918,1638.25,1026.918"/>
	<path clip-path="url(#SVGID_28_)" fill="none" stroke="#534741" stroke-width="2" stroke-miterlimit="10" d="M1638.25,1026.918
		h27.091c9.163,0,16.592-7.429,16.592-16.593s-7.429-16.593-16.592-16.593h-27.091c-9.163,0-16.592,7.429-16.592,16.593
		S1629.087,1026.918,1638.25,1026.918z"/>
	<rect x="1632.302" y="999.072" clip-path="url(#SVGID_28_)" fill="#4D4D4D" width="39" height="21"/>
	
		<rect x="1632.302" y="999.072" clip-path="url(#SVGID_28_)" fill="none" stroke="#534741" stroke-width="2" stroke-miterlimit="10" width="39" height="21"/>
	<rect x="1349.955" y="650.514" clip-path="url(#SVGID_28_)" fill="#005F3B" width="44.75" height="44.335"/>
	
		<rect x="1349.955" y="650.514" clip-path="url(#SVGID_28_)" fill="none" stroke="#333333" stroke-miterlimit="10" width="44.75" height="44.335"/>
	<polygon clip-path="url(#SVGID_28_)" fill="#B3B3B3" points="1381.463,657.572 1364.142,657.572 1355.481,672.572 
		1364.142,687.572 1381.463,687.572 1390.123,672.572 	"/>
	<polygon clip-path="url(#SVGID_28_)" fill="none" stroke="#333333" stroke-miterlimit="10" points="1381.463,657.572 
		1364.142,657.572 1355.481,672.572 1364.142,687.572 1381.463,687.572 1390.123,672.572 	"/>
	<path clip-path="url(#SVGID_28_)" fill="#001F13" d="M1736.766,841.849h30.113c8.89,0,16.097-7.206,16.097-16.097v-0.991
		c0-8.89-7.207-16.097-16.097-16.097h-30.113c-8.891,0-16.098,7.207-16.098,16.097v0.991
		C1720.668,834.643,1727.875,841.849,1736.766,841.849"/>
	<path clip-path="url(#SVGID_28_)" fill="none" stroke="#4D4D4D" stroke-miterlimit="10" d="M1736.766,841.849h30.113
		c8.89,0,16.097-7.206,16.097-16.097v-0.991c0-8.89-7.207-16.097-16.097-16.097h-30.113c-8.891,0-16.098,7.207-16.098,16.097v0.991
		C1720.668,834.643,1727.875,841.849,1736.766,841.849z"/>
	<path clip-path="url(#SVGID_28_)" fill="#001F13" d="M1747.802,825.572c0,4.971-4.029,9-9,9c-4.97,0-9-4.029-9-9s4.03-9,9-9
		C1743.772,816.572,1747.802,820.602,1747.802,825.572"/>
	<circle clip-path="url(#SVGID_28_)" fill="none" stroke="#4D4D4D" stroke-miterlimit="10" cx="1738.802" cy="825.572" r="9"/>
	<path clip-path="url(#SVGID_28_)" fill="#001F13" d="M1773.802,825.572c0,4.971-4.029,9-9,9c-4.97,0-9-4.029-9-9s4.03-9,9-9
		C1769.772,816.572,1773.802,820.602,1773.802,825.572"/>
	<circle clip-path="url(#SVGID_28_)" fill="none" stroke="#4D4D4D" stroke-miterlimit="10" cx="1764.802" cy="825.572" r="9"/>
	<rect x="811.891" y="990.095" clip-path="url(#SVGID_28_)" fill="#4D4D4D" width="60.275" height="29.122"/>
	
		<rect x="811.891" y="990.095" clip-path="url(#SVGID_28_)" fill="none" stroke="#333333" stroke-miterlimit="10" width="60.275" height="29.122"/>
	<rect x="814.802" y="994.572" clip-path="url(#SVGID_28_)" fill="#808080" width="8" height="20"/>
	
		<rect x="814.802" y="994.572" clip-path="url(#SVGID_28_)" fill="none" stroke="#333333" stroke-miterlimit="10" width="8" height="20"/>
	<rect x="825.802" y="994.572" clip-path="url(#SVGID_28_)" fill="#808080" width="8" height="20"/>
	
		<rect x="825.802" y="994.572" clip-path="url(#SVGID_28_)" fill="none" stroke="#333333" stroke-miterlimit="10" width="8" height="20"/>
	<rect x="836.802" y="994.572" clip-path="url(#SVGID_28_)" fill="#808080" width="8" height="20"/>
	
		<rect x="836.802" y="994.572" clip-path="url(#SVGID_28_)" fill="none" stroke="#333333" stroke-miterlimit="10" width="8" height="20"/>
	<rect x="847.802" y="994.572" clip-path="url(#SVGID_28_)" fill="#808080" width="8" height="20"/>
	
		<rect x="847.802" y="994.572" clip-path="url(#SVGID_28_)" fill="none" stroke="#333333" stroke-miterlimit="10" width="8" height="20"/>
	<rect x="859.802" y="994.572" clip-path="url(#SVGID_28_)" fill="#808080" width="8" height="20"/>
	
		<rect x="859.802" y="994.572" clip-path="url(#SVGID_28_)" fill="none" stroke="#333333" stroke-miterlimit="10" width="8" height="20"/>
	<rect x="1399.816" y="518.362" clip-path="url(#SVGID_28_)" fill="#4D4D4D" width="29.799" height="37.25"/>
	<rect x="1401.302" y="521.072" clip-path="url(#SVGID_28_)" fill="#333333" width="27" height="31"/>
	
		<rect x="1401.302" y="521.072" clip-path="url(#SVGID_28_)" fill="none" stroke="#1A1A1A" stroke-miterlimit="10" width="27" height="31"/>
	<rect x="1809.705" y="638.795" clip-path="url(#SVGID_28_)" fill="#22B573" width="60.275" height="33.187"/>
	
		<rect x="1809.705" y="638.795" clip-path="url(#SVGID_28_)" fill="none" stroke="#4D4D4D" stroke-miterlimit="10" width="60.275" height="33.187"/>
	<rect x="1813.802" y="643.572" clip-path="url(#SVGID_28_)" fill="#006837" width="53" height="24"/>
	
		<rect x="1813.802" y="643.572" clip-path="url(#SVGID_28_)" fill="none" stroke="#4D4D4D" stroke-miterlimit="10" width="53" height="24"/>
	<rect x="1629.754" y="175.865" clip-path="url(#SVGID_28_)" fill="#005F3B" width="44.75" height="44.335"/>
	
		<rect x="1629.754" y="175.865" clip-path="url(#SVGID_28_)" fill="none" stroke="#333333" stroke-miterlimit="10" width="44.75" height="44.335"/>
	<polygon clip-path="url(#SVGID_28_)" fill="#B3B3B3" points="1661.262,182.923 1643.94,182.923 1635.28,197.923 1643.94,212.923 
		1661.262,212.923 1669.922,197.923 	"/>
	<polygon clip-path="url(#SVGID_28_)" fill="none" stroke="#333333" stroke-miterlimit="10" points="1661.262,182.923 
		1643.94,182.923 1635.28,197.923 1643.94,212.923 1661.262,212.923 1669.922,197.923 	"/>
	<rect x="202.528" y="946.284" clip-path="url(#SVGID_28_)" fill="#005F3B" width="44.75" height="44.335"/>
	
		<rect x="202.528" y="946.284" clip-path="url(#SVGID_28_)" fill="none" stroke="#333333" stroke-miterlimit="10" width="44.75" height="44.335"/>
	<polygon clip-path="url(#SVGID_28_)" fill="#B3B3B3" points="234.036,953.343 216.715,953.343 208.055,968.343 216.715,983.343 
		234.036,983.343 242.696,968.343 	"/>
	<polygon clip-path="url(#SVGID_28_)" fill="none" stroke="#333333" stroke-miterlimit="10" points="234.036,953.343 
		216.715,953.343 208.055,968.343 216.715,983.343 234.036,983.343 242.696,968.343 	"/>
	<rect x="953.411" y="227.73" clip-path="url(#SVGID_28_)" fill="#22B573" width="60.274" height="33.185"/>
	
		<rect x="953.411" y="227.73" clip-path="url(#SVGID_28_)" fill="none" stroke="#4D4D4D" stroke-miterlimit="10" width="60.274" height="33.185"/>
	<rect x="957.508" y="232.506" clip-path="url(#SVGID_28_)" fill="#006837" width="53" height="24"/>
	
		<rect x="957.508" y="232.506" clip-path="url(#SVGID_28_)" fill="none" stroke="#4D4D4D" stroke-miterlimit="10" width="53" height="24"/>
	<rect x="1537.411" y="7.73" clip-path="url(#SVGID_28_)" fill="#22B573" width="60.274" height="33.185"/>
	
		<rect x="1537.411" y="7.73" clip-path="url(#SVGID_28_)" fill="none" stroke="#4D4D4D" stroke-miterlimit="10" width="60.274" height="33.185"/>
	<rect x="1541.508" y="12.506" clip-path="url(#SVGID_28_)" fill="#006837" width="53" height="24"/>
	
		<rect x="1541.508" y="12.506" clip-path="url(#SVGID_28_)" fill="none" stroke="#4D4D4D" stroke-miterlimit="10" width="53" height="24"/>
	<rect x="1143.411" y="792.73" clip-path="url(#SVGID_28_)" fill="#22B573" width="60.274" height="33.185"/>
	
		<rect x="1143.411" y="792.73" clip-path="url(#SVGID_28_)" fill="none" stroke="#4D4D4D" stroke-miterlimit="10" width="60.274" height="33.185"/>
	<rect x="1147.508" y="797.507" clip-path="url(#SVGID_28_)" fill="#006837" width="53" height="24"/>
	
		<rect x="1147.508" y="797.507" clip-path="url(#SVGID_28_)" fill="none" stroke="#4D4D4D" stroke-miterlimit="10" width="53" height="24"/>
	<path clip-path="url(#SVGID_28_)" fill="#001F13" d="M315.492,825.979h30.113c8.89,0,16.097-7.207,16.097-16.097v-0.991
		c0-8.891-7.207-16.097-16.097-16.097h-30.113c-8.89,0-16.097,7.206-16.097,16.097v0.991
		C299.395,818.772,306.602,825.979,315.492,825.979"/>
	<path clip-path="url(#SVGID_28_)" fill="none" stroke="#4D4D4D" stroke-miterlimit="10" d="M315.492,825.979h30.113
		c8.89,0,16.097-7.207,16.097-16.097v-0.991c0-8.891-7.207-16.097-16.097-16.097h-30.113c-8.89,0-16.097,7.206-16.097,16.097v0.991
		C299.395,818.772,306.602,825.979,315.492,825.979z"/>
	<path clip-path="url(#SVGID_28_)" fill="#001F13" d="M326.529,809.703c0,4.971-4.029,9-9,9s-9-4.029-9-9s4.029-9,9-9
		S326.529,804.732,326.529,809.703"/>
	<circle clip-path="url(#SVGID_28_)" fill="none" stroke="#4D4D4D" stroke-miterlimit="10" cx="317.529" cy="809.703" r="9"/>
	<path clip-path="url(#SVGID_28_)" fill="#001F13" d="M352.529,809.703c0,4.971-4.029,9-9,9s-9-4.029-9-9s4.029-9,9-9
		S352.529,804.732,352.529,809.703"/>
	<circle clip-path="url(#SVGID_28_)" fill="none" stroke="#4D4D4D" stroke-miterlimit="10" cx="343.529" cy="809.703" r="9"/>
	<rect x="1095.505" y="70.229" clip-path="url(#SVGID_28_)" fill="#4D4D4D" width="37.248" height="29.799"/>
	<rect x="1098.215" y="71.543" clip-path="url(#SVGID_28_)" fill="#333333" width="31" height="27"/>
	
		<rect x="1098.215" y="71.543" clip-path="url(#SVGID_28_)" fill="none" stroke="#1A1A1A" stroke-miterlimit="10" width="31" height="27"/>
</g>
<g display="none">
	<defs>
		<rect id="SVGID_29_" width="1920" height="1080"/>
	</defs>
	<clipPath id="SVGID_30_" display="inline">
		<use xlink:href="#SVGID_29_"  overflow="visible"/>
	</clipPath>
	<path display="inline" clip-path="url(#SVGID_30_)" fill="#343446" d="M1165.017,107c-2.767,0-5.017-2.25-5.017-5.016V39.016
		c0-2.766,2.25-5.016,5.017-5.016h685.873c2.767,0,5.017,2.25,5.017,5.016v62.968c0,2.766-2.25,5.016-5.017,5.016H1165.017z"/>
	<path display="inline" clip-path="url(#SVGID_30_)" fill="#4D4D4D" d="M1850.89,37c1.112,0,2.017,0.904,2.017,2.016v62.968
		c0,1.112-0.904,2.016-2.017,2.016h-685.874c-1.111,0-2.016-0.904-2.016-2.016V39.016c0-1.112,0.904-2.016,2.016-2.016H1850.89
		 M1850.89,31h-685.874c-4.427,0-8.016,3.589-8.016,8.016v62.968c0,4.427,3.589,8.016,8.016,8.016h685.874
		c4.428,0,8.017-3.589,8.017-8.016V39.016C1858.906,34.589,1855.317,31,1850.89,31"/>
	<rect x="1857.007" y="45.5" display="inline" clip-path="url(#SVGID_30_)" fill="#4D4D4D" width="22.493" height="46"/>
	<path display="inline" clip-path="url(#SVGID_30_)" fill="#4D4D4D" d="M1878,90h-19.493V47H1878V90z M1881,44h-25.493v49H1881V44z"
		/>
</g>
</svg>
