<svg xmlns="http://www.w3.org/2000/svg" viewBox="0 0 1920 1080"><defs><style>.cls-1,.cls-17,.cls-18,.cls-21,.cls-29,.cls-33,.cls-7{fill:#333;}.cls-2,.cls-6{fill:none;}.cls-2,.cls-9{stroke:#b3b3b3;}.cls-10,.cls-11,.cls-12,.cls-13,.cls-14,.cls-15,.cls-16,.cls-17,.cls-18,.cls-19,.cls-2,.cls-20,.cls-21,.cls-22,.cls-23,.cls-24,.cls-25,.cls-26,.cls-27,.cls-29,.cls-3,.cls-30,.cls-31,.cls-32,.cls-33,.cls-4,.cls-5,.cls-6,.cls-7,.cls-9{stroke-miterlimit:10;}.cls-2,.cls-21,.cls-22{stroke-width:2px;}.cls-3{fill:#fff;}.cls-16,.cls-3{stroke:#000;}.cls-4{fill:#e0e0e0;}.cls-11,.cls-12,.cls-13,.cls-14,.cls-19,.cls-29,.cls-4,.cls-6{stroke:#1a1a1a;}.cls-12,.cls-4,.cls-5,.cls-6,.cls-7{stroke-width:6px;}.cls-5{fill:#6affb9;}.cls-15,.cls-18,.cls-23,.cls-24,.cls-26,.cls-27,.cls-5,.cls-7{stroke:#333;}.cls-8{fill:#e6e6e6;}.cls-10,.cls-24,.cls-9{fill:#b3b3b3;}.cls-10{stroke:#999;}.cls-11,.cls-12,.cls-13,.cls-14{fill:#474747;}.cls-11{stroke-width:3px;}.cls-13{stroke-width:5px;}.cls-14{stroke-width:4px;}.cls-15{fill:#ccc;}.cls-16,.cls-27{fill:gray;}.cls-17,.cls-25,.cls-30,.cls-31{stroke:#4d4d4d;}.cls-19,.cls-20{fill:#666;}.cls-20{stroke:gray;}.cls-21,.cls-22{stroke:#534741;}.cls-22,.cls-26,.cls-28,.cls-32{fill:#4d4d4d;}.cls-23{fill:#005f3b;}.cls-25{fill:#001f13;}.cls-30{fill:#22b573;}.cls-31{fill:#006837;}.cls-32,.cls-33{stroke:#998675;}</style></defs><g id="fondo"><rect class="cls-1" width="1920" height="1080"/></g><g id="lineas"><line class="cls-2" x1="846" y1="488" x2="827" y2="488"/><line class="cls-2" x1="827" y1="489" x2="827" y2="382"/><line class="cls-2" x1="827" y1="334" x2="827" y2="281"/><line class="cls-2" x1="828" y1="281" x2="794" y2="281"/><line class="cls-2" x1="795" y1="282" x2="795" y2="251"/><line class="cls-2" x1="794" y1="200" x2="794" y2="167"/><line class="cls-2" x1="795" y1="167" x2="758" y2="167"/><line class="cls-2" x1="736" y1="143" x2="736" y2="103"/><line class="cls-2" x1="735" y1="103" x2="830" y2="103"/><line class="cls-2" x1="846" y1="512" x2="647" y2="512"/><line class="cls-2" x1="647" y1="513" x2="647" y2="477"/><line class="cls-2" x1="647" y1="454" x2="647" y2="419"/><polyline class="cls-2" points="647 376 647 310 518 310 518 244 231 244 231 268 106 268 106 195 119 195 119 206 131 206 131 195 143 195 143 206 238 206 238 184 238 111 100 111 100 85 100 12 144 12 144 31 36 31 0 31"/><polyline class="cls-2" points="145 21 228 21 228 42 307 42 307 85 242 85 242 108 359 108 359 133 359 201 238 201"/><line class="cls-2" x1="312.23" y1="201" x2="312.23" y2="244"/><path class="cls-3" d="M18.5,67.5"/><polyline class="cls-2" points="24 45 24 78 215 78 215 94"/><line class="cls-2" x1="24" y1="77" x2="24" y2="318"/><line class="cls-2" x1="24.48" y1="178.37" x2="90" y2="178.37"/><polyline class="cls-2" points="391 142 483 142 483 45 312 45"/><line class="cls-2" x1="386.29" y1="45" x2="386.29"/><polyline class="cls-2" points="506 48 583 48 583 210 514 210 514 240"/><polyline class="cls-2" points="541.13 210 541.13 117 483.06 117"/><polyline class="cls-2" points="644 299 644 167 717 167"/><polyline class="cls-2" points="680.5 167 681 142 583 142"/><polyline class="cls-2" points="644 250 614 250 614 264 590 264 590 250 569 250 549 250"/><polyline class="cls-2" points="291.01 244 291 329 180 329 180 357 135 357 135 329 57 329 57 267 92 267"/><polyline class="cls-2" points="35 345 35 445 221 445 221 382 262 382 262 442 289 442 289 345 411 345 411 455 541 455 541 472 590 472"/><polyline class="cls-2" points="518.79 324 518.79 398 590 398 410 398"/><polyline class="cls-2" points="846 537 750 537 750 666 692 666 601 666 601 642 750 642"/><polyline class="cls-2" points="846 561 545 561 545 535 380 535 380 618 323 618 323 537 404 537"/><polyline class="cls-2" points="419 636 467 636 467 668 585 668"/><polyline class="cls-2" points="421 609 492 609 492 642 577 642"/><polyline class="cls-2" points="323 615.07 263 615.07 263 494 216 494 216 447 216 535 98 535 98 591 0 591"/><line class="cls-2" x1="98" y1="512" x2="98" y2="445"/><polyline class="cls-2" points="168 548 168 592 137 592 137 637 137 773 156 773 156 854 103 854 103 889 262 889 262 877 323 877 323 812 395 812 395 930 142 930 142 1049 142 1080"/><line class="cls-2" x1="305.52" y1="930" x2="305.52" y2="1080"/><polyline class="cls-2" points="375.19 930 375.19 1016 48 1016 48 910 0 910"/><line class="cls-2" x1="334" y1="646" x2="334" y2="812"/><polyline class="cls-2" points="399 639 399 729 334.44 729 334.44 684 137.01 684"/><polyline class="cls-2" points="601 684 601 963 601 1046 651 1046 651 847 816 847"/><polyline class="cls-2" points="566 1053 455 1053 455 1080"/><polyline class="cls-2" points="560 982 431 982 431 1042 375 1042 375 1080"/><polyline class="cls-2" points="842 900 842 1006 776 1006 776 1080 776 1006 842 1006 950 1006 950 1064 1002 1064 1002 1012 1069 1012 1069 1062 1314 1062 1314 1074 1435 1074 1435 990 1173 990 1173 1062 1122 1062 1122 1080"/><polyline class="cls-2" points="1002 838 1002 940 842 940"/><polyline class="cls-2" points="1054 812 1261 812 1261 976"/><line class="cls-2" x1="1415" y1="867" x2="1261.35" y2="867"/><polyline class="cls-2" points="746 680 746 717 911 717 911 645"/><line class="cls-2" x1="842" y1="812" x2="842" y2="717"/><polyline class="cls-2" points="935 649 935 744 1002 744 1002 793"/><polyline class="cls-2" points="983 645 983 685 1239 685 1239 776 1179 776 1179 813"/><polyline class="cls-2" points="960 649 960 727 1054 727 1054 740 1197 740 1197 776"/><polyline class="cls-2" points="1007 649 1007 661 1091 661 1091 634 1454 634 1454 761 1338 761 1338 709 1411 709 1411 807 1484 807 1484 845"/><polyline class="cls-2" points="1071 488 1220 488 1220 523 1160 523 1160 512 1067 512"/><polyline class="cls-2" points="1073 535 1166 535 1166 569 1331 569 1409 569 1409 634"/><line class="cls-2" x1="1073" y1="560" x2="1166" y2="560"/><polyline class="cls-2" points="1073 584 1130 584 1130 608 1258 608 1258 634"/><polyline class="cls-2" points="1409 592.61 1612 592.61 1612 583 1875 583 1875 372 1920 372"/><polyline class="cls-2" points="848 584 820 584 820 668 876 668 876 717 876 668 820 668 820 717.01"/><polyline class="cls-2" points="1469 1059 1650 1059 1650 940 1840 940 1840 1056 1720 1056 1720 1010 1774 1010 1774 1080"/><line class="cls-2" x1="1840" y1="985.9" x2="1920" y2="985.9"/><polyline class="cls-2" points="1555.07 1059.15 1555.07 1080 1555.07 872 1525 872 1525 948 1457 948 1457 872"/><polyline class="cls-2" points="1749 906 1749 755 1905 755 1905 819"/><line class="cls-2" x1="1898" y1="825" x2="1749.43" y2="825"/><polyline class="cls-2" points="1749 786.68 1655 786.68 1655 730 1609 730 1609 613"/><polyline class="cls-2" points="1891 733 1891 655 1713 655 1713 596"/><polyline class="cls-2" points="911 426 911 361 749 361 749 398 687 398"/><polyline class="cls-2" points="935 426 935 222 806 222"/><polyline class="cls-2" points="960 426 960 167 846 167 846 34 654 34 654 58 572 58"/><polyline class="cls-2" points="911 31 876 31 876 16 795 16 795 0"/><polyline class="cls-2" points="1012 107 1012 251 960 251"/><line class="cls-2" x1="983" y1="423" x2="983" y2="250"/><polyline class="cls-2" points="1007 426 1007 251 1007 376 1155 376 1155 489"/><polyline class="cls-2" points="1166 366 1229 366 1229 329 1311 329 1311 370 1358 370 1358 382 1334 382 1334 448 1281 448 1281 523"/><polyline class="cls-2" points="1351 400 1599 400 1599 575 1599 472 1488 472 1488 537 1374 537 1374 569"/><line class="cls-2" x1="1599" y1="512" x2="1875" y2="512"/><polyline class="cls-2" points="1599 438.55 1705 438.55 1705 273 1883 273 1883 319 1815 319 1815 368 1781 368 1781 228 1781 175 1781 159 1859 159 1859 187 1906 187 1906 220 1875 220 1875 273"/><polyline class="cls-2" points="1737 103 1737 164 1614 164 1614 307 1661 307 1661 351"/><polyline class="cls-2" points="1614 274.42 1510 274.42 1510 400"/><polyline class="cls-2" points="1540.61 274.42 1540.61 207 1269 207 1269 329"/><polyline class="cls-2" points="1269 192 1269 88 1028 88 1028 0"/><polyline class="cls-2" points="1269 154 1453 154 1453 83 1510 83 1510 149 1652 149 1652 164.83"/><polyline class="cls-2" points="1756 90 1833 90 1833 0"/><polyline class="cls-2" points="1737 79 1737 26 1505 26 1505 83"/><polyline class="cls-2" points="1358 154.5 1358 45 1269 45 1269 0"/></g><g id="procesador"><rect class="cls-4" x="864.63" y="444.63" width="188.96" height="182.63" rx="29.55"/><rect class="cls-5" x="918.87" y="496.08" width="81.37" height="78.64" rx="14.56"/><line class="cls-6" x1="910.74" y1="443.73" x2="911.64" y2="422.93"/><line class="cls-6" x1="934.99" y1="443.71" x2="935.89" y2="422.92"/><line class="cls-6" x1="959.11" y1="444.09" x2="960.01" y2="423.3"/><line class="cls-6" x1="982.61" y1="444.09" x2="983.52" y2="423.3"/><line class="cls-6" x1="1006.12" y1="444.09" x2="1007.02" y2="423.3"/><line class="cls-6" x1="1053.68" y1="488.05" x2="1074.49" y2="488.33"/><line class="cls-6" x1="1054.42" y1="512.29" x2="1075.24" y2="512.57"/><line class="cls-6" x1="1054.77" y1="536.41" x2="1075.58" y2="536.69"/><line class="cls-6" x1="1055.48" y1="559.91" x2="1076.29" y2="560.18"/><line class="cls-6" x1="1056.19" y1="583.4" x2="1077" y2="583.68"/><line class="cls-6" x1="911.03" y1="648.22" x2="911.94" y2="627.42"/><line class="cls-6" x1="935.28" y1="648.2" x2="936.19" y2="627.41"/><line class="cls-6" x1="959.4" y1="648.58" x2="960.31" y2="627.79"/><line class="cls-6" x1="982.91" y1="648.58" x2="983.82" y2="627.79"/><line class="cls-6" x1="1006.42" y1="648.58" x2="1007.32" y2="627.79"/><line class="cls-6" x1="842.24" y1="488.12" x2="863.05" y2="488.22"/><line class="cls-6" x1="843.19" y1="512.35" x2="864" y2="512.46"/><line class="cls-6" x1="843.74" y1="536.47" x2="864.55" y2="536.57"/><line class="cls-6" x1="844.64" y1="559.96" x2="865.46" y2="560.06"/><line class="cls-6" x1="845.55" y1="583.45" x2="866.36" y2="583.55"/><circle class="cls-7" cx="1022.85" cy="471.75" r="5.42"/><circle class="cls-7" cx="891.75" cy="602.85" r="5.42"/></g><g id="componentes_vacios" data-name="componentes vacios"><path class="cls-8" d="M79.76,166.52H249.62a.07.07,0,0,1,.07.07v0A23.64,23.64,0,0,1,226,190.22H79.76a.07.07,0,0,1-.07-.07V166.58a.07.07,0,0,1,.07-.07Z"/><rect class="cls-8" x="5" y="311.95" width="60.28" height="33.19"/><rect class="cls-8" x="330.95" y="125.88" width="60.28" height="33.19" rx="16.59"/><path class="cls-8" d="M288.93,21.25h29.8a0,0,0,0,1,0,0v25a15.59,15.59,0,0,1-15.59,15.59h0a14.21,14.21,0,0,1-14.21-14.21V21.25A0,0,0,0,1,288.93,21.25Z"/><path class="cls-8" d="M44.57,64.25h111.6a0,0,0,0,1,0,0v.51a24.5,24.5,0,0,1-24.5,24.5H69a24.5,24.5,0,0,1-24.5-24.5v-.46a.1.1,0,0,1,.1-.1Z"/><rect class="cls-8" x="134.38" y="520.72" width="60.28" height="29.12"/><path class="cls-8" d="M569.36,34.49h29.83A10.82,10.82,0,0,1,610,45.31V73.14a.63.63,0,0,1-.63.63H556.46a.63.63,0,0,1-.63-.63V48a13.53,13.53,0,0,1,13.53-13.53Z"/><rect class="cls-8" x="562.6" y="58.2" width="40.63" height="20.32"/><rect class="cls-8" x="486.96" y="233.81" width="62.31" height="33.19" rx="16.1"/><path class="cls-8" d="M343.26,441.88H458.93a.07.07,0,0,1,.07.07v0a23.64,23.64,0,0,1-23.64,23.64H343.26a.07.07,0,0,1-.07-.07V441.95a.07.07,0,0,1,.07-.07Z" transform="translate(802.19 907.47) rotate(180)"/><rect class="cls-8" x="276.11" y="317.51" width="29.8" height="41.49"/><rect class="cls-8" x="430.12" y="520.54" width="60.28" height="29.12"/><rect class="cls-8" x="614.19" y="297.25" width="60.28" height="29.12"/><rect class="cls-8" x="713.25" y="142.66" width="44.75" height="44.34"/><rect class="cls-8" x="901.7" y="16.15" width="48.3" height="29.12"/><rect class="cls-8" x="159" y="548" width="17" height="5"/><rect class="cls-8" x="131" y="530" width="5" height="11"/><rect class="cls-8" x="191" y="530" width="7" height="11"/><rect class="cls-8" x="489" y="529" width="5" height="13"/><rect class="cls-9" x="57.5" y="71.5" width="88" height="3"/><rect class="cls-9" x="62.5" y="78.5" width="77" height="3"/><polygon class="cls-9" points="309.66 24.81 298.19 24.81 292.46 34.74 298.19 44.67 309.66 44.67 315.39 34.74 309.66 24.81"/><rect class="cls-9" x="294.4" y="49.67" width="20" height="4"/><rect class="cls-9" x="341.5" y="132.5" width="39" height="21"/><rect class="cls-9" x="91.5" y="171.5" width="115" height="14"/><rect class="cls-9" x="210.5" y="171.5" width="21" height="14"/><rect class="cls-9" x="277.87" y="320.57" width="26.13" height="31.38"/><circle class="cls-9" cx="504.5" cy="250.5" r="9"/><circle class="cls-9" cx="530.5" cy="250.5" r="9"/><path class="cls-9" d="M572.29,37.38h24.25A10.82,10.82,0,0,1,607.36,48.2V71.53a.63.63,0,0,1-.63.63H559.38a.63.63,0,0,1-.63-.63V50.91A13.53,13.53,0,0,1,572.29,37.38Z"/><rect class="cls-9" x="564.83" y="58.37" width="36.45" height="17.99"/><path class="cls-9" d="M575.93,39.78h17.85A10.82,10.82,0,0,1,604.6,50.6V70.14a.63.63,0,0,1-.63.63H563a.63.63,0,0,1-.63-.63V53.31A13.53,13.53,0,0,1,575.93,39.78Z"/><rect class="cls-9" x="567.68" y="58.48" width="31.65" height="16.03"/><rect class="cls-10" x="571.66" y="44.49" width="23.67" height="23.37"/><rect class="cls-9" x="617.5" y="301.5" width="8" height="20"/><rect class="cls-9" x="628.5" y="301.5" width="8" height="20"/><rect class="cls-9" x="639.5" y="301.5" width="8" height="20"/><rect class="cls-9" x="650.5" y="301.5" width="8" height="20"/><rect class="cls-9" x="662.5" y="301.5" width="8" height="20"/><polygon class="cls-9" points="743.78 149.5 726.46 149.5 717.8 164.5 726.46 179.5 743.78 179.5 752.44 164.5 743.78 149.5"/><rect class="cls-9" x="410.5" y="445.5" width="43" height="17"/><rect class="cls-9" x="386.5" y="445.5" width="21" height="17"/><rect class="cls-9" x="361.5" y="445.5" width="21" height="17"/><rect class="cls-9" x="167.03" y="525.69" width="23.97" height="19.47"/><rect class="cls-9" x="138.06" y="525.69" width="24.97" height="19.47"/><rect class="cls-9" x="462.62" y="524.95" width="24.65" height="20"/><rect class="cls-9" x="432.84" y="524.95" width="25.68" height="20"/><rect class="cls-8" x="954.7" y="225.41" width="60.28" height="33.19"/><rect class="cls-9" x="958.5" y="230.5" width="53" height="24"/><rect class="cls-9" x="904.5" y="19.5" width="43" height="23"/><rect class="cls-8" x="56.5" y="323.5" width="15" height="12" rx="2.89"/><rect class="cls-8" x="31.5" y="332.5" width="8" height="19" rx="2.89"/><rect class="cls-9" x="8.5" y="316.5" width="53" height="24"/><rect class="cls-9" x="277.89" y="354.83" width="6.61" height="8.11"/><rect class="cls-9" x="298.33" y="354.89" width="6.17" height="8.11"/><rect class="cls-8" x="981.5" y="258.5" width="4" height="6"/><rect class="cls-8" x="1005.5" y="258.5" width="4" height="6"/><rect class="cls-8" x="957.5" y="258.5" width="4" height="6"/><rect class="cls-8" x="949.42" y="19.47" width="4.78" height="22"/><rect class="cls-8" x="953.83" y="25.47" width="4.78" height="9"/></g><g id="Decoracion"><rect class="cls-11" x="1657.09" y="344.14" width="94.98" height="56.28" rx="9.24"/><rect class="cls-11" x="1209.9" y="342.82" width="50.13" height="45.73" transform="translate(869.28 1600.65) rotate(-90)"/><rect class="cls-11" x="1126.8" y="347.66" width="50.13" height="48.37" rx="6.44" transform="translate(780.02 1523.7) rotate(-90)"/><rect class="cls-11" x="1292.18" y="312.35" width="22.61" height="45.73" rx="6.06" transform="translate(968.27 1638.71) rotate(-90)"/><rect class="cls-11" x="1308.49" y="348.81" width="19.97" height="38.77" transform="translate(950.28 1686.67) rotate(-90)"/><rect class="cls-11" x="1325.7" y="368.83" width="15.74" height="63.11" transform="translate(933.19 1733.95) rotate(-90)"/><rect class="cls-11" x="807.13" y="326.99" width="46.61" height="63.32" transform="translate(471.78 1189.08) rotate(-90)"/><rect class="cls-11" x="769.31" y="202.11" width="50.13" height="45.73" transform="translate(569.4 1019.35) rotate(-90)"/><rect class="cls-11" x="730.38" y="239.34" width="11.43" height="45.73" transform="translate(473.89 998.3) rotate(-90)"/><rect class="cls-11" x="721.05" y="194.3" width="34.3" height="45.52" transform="translate(521.14 955.26) rotate(-90)"/><rect class="cls-11" x="838.13" y="81.85" width="22.86" height="35.62" transform="translate(749.9 949.22) rotate(-90)"/><rect class="cls-11" x="902.98" y="57.01" width="43.09" height="65.08" rx="8.44" transform="translate(834.98 1014.08) rotate(-90)"/><rect class="cls-11" x="987.85" y="57.45" width="43.09" height="64.2" rx="9.21" transform="translate(919.85 1098.94) rotate(-90)"/><rect class="cls-11" x="1714.6" y="59.55" width="43.97" height="64.38" transform="translate(1644.84 1828.33) rotate(-90)"/><rect class="cls-11" x="1247.85" y="191.5" width="42.01" height="30.71" transform="translate(1062.01 1475.71) rotate(-90)"/><rect class="cls-11" x="197.25" y="415.37" width="36.94" height="45.73" transform="translate(-222.52 653.95) rotate(-90)"/><rect class="cls-11" x="499.77" y="275.54" width="36.06" height="69.47" transform="translate(207.52 828.08) rotate(-90)"/><rect class="cls-11" x="1120.2" y="664.69" width="36.06" height="56.28" transform="translate(445.4 1831.06) rotate(-90)"/><rect class="cls-11" x="1121.96" y="705.14" width="32.54" height="56.28" transform="translate(404.95 1871.51) rotate(-90)"/><rect class="cls-11" x="1231.01" y="660.29" width="34.3" height="63.32" transform="translate(556.21 1940.11) rotate(-90)"/><rect class="cls-11" x="1692.27" y="540.25" width="42.21" height="91.46" rx="10.06" transform="translate(1127.39 2299.35) rotate(-90)"/><rect class="cls-12" x="1578.82" y="571.03" width="50.13" height="51.89" rx="8.44" transform="translate(1006.91 2200.86) rotate(-90)"/><rect class="cls-11" x="1718.65" y="912.25" width="61.56" height="49.25" rx="10" transform="translate(812.56 2686.3) rotate(-90)"/><rect class="cls-11" x="1422.68" y="1031.89" width="38.69" height="54.52" transform="translate(382.87 2501.18) rotate(-90)"/><rect class="cls-11" x="1370.35" y="1042" width="19.35" height="53.64" transform="translate(311.2 2448.85) rotate(-90)"/><rect class="cls-11" x="1239.36" y="943.91" width="43.97" height="93.22" transform="translate(270.83 2251.86) rotate(-90)"/><rect class="cls-11" x="1602.12" y="642.7" width="19.35" height="55.4" transform="translate(941.39 2282.2) rotate(-90)"/><rect class="cls-11" x="1635.98" y="702.06" width="33.42" height="56.28" rx="5.61" transform="translate(922.49 2382.9) rotate(-90)"/><rect class="cls-11" x="976.86" y="754.39" width="50.13" height="117.84" rx="8.06" transform="translate(188.61 1815.23) rotate(-90)"/><rect class="cls-13" x="797.89" y="827.82" width="87.94" height="56.28" transform="translate(-14.1 1697.83) rotate(-90)"/><rect class="cls-14" x="571.88" y="629.07" width="56.28" height="56.28" rx="5.79" transform="translate(-57.19 1257.24) rotate(-90)"/><rect class="cls-14" x="659.38" y="623.36" width="56.28" height="56.28" rx="5.79" transform="translate(36.03 1339.02) rotate(-90)"/><rect class="cls-14" x="733.26" y="617.2" width="25.5" height="37.82" rx="5.79" transform="translate(109.9 1382.11) rotate(-90)"/><rect class="cls-14" x="733.26" y="648.86" width="25.5" height="37.82" rx="5.79" transform="translate(78.24 1413.77) rotate(-90)"/><rect class="cls-14" x="616.75" y="332.42" width="42.79" height="130.42" rx="5.79" transform="translate(240.51 1035.78) rotate(-90)"/><rect class="cls-14" x="633.44" y="402.18" width="21.99" height="128.4" rx="5.79" transform="translate(178.05 1110.81) rotate(-90)"/><rect class="cls-14" x="353.8" y="504.21" width="45.03" height="68.38" rx="5.79" transform="translate(-162.08 914.71) rotate(-90)"/><rect class="cls-14" x="297.06" y="589.94" width="74.75" height="37.82" rx="1.77" transform="translate(-274.41 943.28) rotate(-90)"/><rect class="cls-14" x="373.13" y="588.62" width="43.09" height="58.04" rx="5.79" transform="translate(-222.96 1012.32) rotate(-90)"/><rect class="cls-14" x="117.22" y="586.86" width="38.69" height="101.13" rx="5.79" transform="translate(-500.86 773.99) rotate(-90)"/><rect class="cls-14" x="78.52" y="521.78" width="38.69" height="23.74" rx="5.79" transform="translate(-435.78 631.53) rotate(-90)"/><rect class="cls-14" x="84.68" y="868.27" width="43.09" height="40.45" rx="5.79" transform="translate(-782.27 994.73) rotate(-90)"/><rect class="cls-14" x="143.16" y="835.3" width="25.5" height="37.82" rx="5.79" transform="translate(-698.29 1010.12) rotate(-90)"/><rect class="cls-11" x="1766.9" y="194.16" width="50.13" height="45.73" transform="translate(1574.95 2008.99) rotate(-90)"/><rect class="cls-11" x="1849.19" y="163.69" width="22.61" height="45.73" rx="6.06" transform="translate(1673.94 2047.05) rotate(-90)"/><rect class="cls-11" x="1865.49" y="200.15" width="19.97" height="38.77" transform="translate(1655.95 2095.01) rotate(-90)"/><rect class="cls-11" x="1880.89" y="221.98" width="15.74" height="59.48" transform="translate(1637.04 2140.48) rotate(-90)"/><rect class="cls-11" x="989.11" y="1027.51" width="38.69" height="54.52" transform="translate(-46.32 2063.23) rotate(-90)"/><rect class="cls-11" x="936.78" y="1037.63" width="19.35" height="53.64" transform="translate(-117.99 2010.91) rotate(-90)"/><rect class="cls-11" x="1484.5" y="68.08" width="50.13" height="45.73" transform="translate(1418.61 1600.51) rotate(-90)"/><rect class="cls-11" x="1447.56" y="94.31" width="11.43" height="45.73" transform="translate(1336.1 1570.45) rotate(-90)"/><rect class="cls-11" x="1436.24" y="60.27" width="34.3" height="45.52" transform="translate(1370.35 1536.42) rotate(-90)"/><rect class="cls-14" x="596.03" y="919.49" width="42.79" height="130.42" rx="5.79" transform="translate(-367.27 1602.13) rotate(-90)"/><rect class="cls-14" x="612.72" y="989.25" width="21.99" height="128.4" rx="5.79" transform="translate(-429.73 1677.16) rotate(-90)"/><rect class="cls-11" x="368.13" y="815.5" width="50.13" height="117.84" rx="8.06" transform="translate(-481.23 1267.61) rotate(-90)"/><rect class="cls-11" x="220.39" y="76.68" width="36.06" height="69.47" transform="translate(127 349.84) rotate(-90)"/><rect class="cls-11" x="477.54" y="53.24" width="11.43" height="45.73" transform="translate(407.15 559.37) rotate(-90)"/><rect class="cls-11" x="466.22" y="25.21" width="34.3" height="45.52" transform="translate(435.4 531.33) rotate(-90)"/><rect class="cls-14" x="5.14" y="16.51" width="38.69" height="23.74" rx="5.79" transform="translate(-3.9 52.87) rotate(-90)"/><rect class="cls-11" x="1814.29" y="1033.5" width="33.42" height="56.28" transform="translate(769.35 2892.65) rotate(-90)"/><rect class="cls-11" x="1239.48" y="479.48" width="27.68" height="100.35" transform="translate(723.66 1782.98) rotate(-90)"/><rect class="cls-11" x="87.53" y="245.36" width="36.94" height="45.73" transform="translate(-162.23 374.23) rotate(-90)"/><rect class="cls-11" x="1431.89" y="820.58" width="43.97" height="93.22" transform="translate(586.68 2321.06) rotate(-90)"/><rect class="cls-11" x="1867.01" y="725.69" width="43.97" height="59" transform="translate(1133.81 2644.19) rotate(-90)"/><rect class="cls-11" x="1867.92" y="812.92" width="72.16" height="29" transform="translate(1076.58 2731.42) rotate(-90)"/><path class="cls-15" d="M1397.26,388.56h169.86a.07.07,0,0,1,.07.07v0a23.64,23.64,0,0,1-23.64,23.64H1397.26a.07.07,0,0,1-.07-.07V388.63A.07.07,0,0,1,1397.26,388.56Z"/><path class="cls-16" d="M1303.43,847.3h29.8a0,0,0,0,1,0,0v25a15.59,15.59,0,0,1-15.59,15.59h0a14.21,14.21,0,0,1-14.21-14.21V847.3A0,0,0,0,1,1303.43,847.3Z"/><polygon class="cls-17" points="1323.86 850.9 1312.4 850.9 1306.66 860.83 1312.4 870.76 1323.86 870.76 1329.6 860.83 1323.86 850.9"/><rect class="cls-17" x="1308.6" y="875.76" width="20" height="4"/><rect class="cls-18" x="1402.6" y="393.76" width="115" height="14"/><rect class="cls-18" x="1521.6" y="393.76" width="21" height="14"/><rect class="cls-19" x="1844.41" y="497" width="48.3" height="29.12"/><rect class="cls-20" x="1846.8" y="499.57" width="43" height="23"/><rect class="cls-21" x="1621.66" y="993.73" width="60.28" height="33.19" rx="16.59"/><rect class="cls-22" x="1632.3" y="999.07" width="39" height="21"/><rect class="cls-23" x="1349.95" y="650.51" width="44.75" height="44.34"/><polygon class="cls-24" points="1381.46 657.57 1364.14 657.57 1355.48 672.57 1364.14 687.57 1381.46 687.57 1390.12 672.57 1381.46 657.57"/><rect class="cls-25" x="1720.67" y="808.66" width="62.31" height="33.19" rx="16.1"/><circle class="cls-25" cx="1738.8" cy="825.57" r="9"/><circle class="cls-25" cx="1764.8" cy="825.57" r="9"/><rect class="cls-26" x="811.89" y="990.09" width="60.28" height="29.12"/><rect class="cls-27" x="814.8" y="994.57" width="8" height="20"/><rect class="cls-27" x="825.8" y="994.57" width="8" height="20"/><rect class="cls-27" x="836.8" y="994.57" width="8" height="20"/><rect class="cls-27" x="847.8" y="994.57" width="8" height="20"/><rect class="cls-27" x="859.8" y="994.57" width="8" height="20"/><rect class="cls-28" x="1399.82" y="518.36" width="29.8" height="37.25"/><rect class="cls-29" x="1401.3" y="521.07" width="27" height="31"/><rect class="cls-30" x="1809.71" y="638.8" width="60.28" height="33.19"/><rect class="cls-31" x="1813.8" y="643.57" width="53" height="24"/><rect class="cls-23" x="1629.75" y="175.86" width="44.75" height="44.34"/><polygon class="cls-24" points="1661.26 182.92 1643.94 182.92 1635.28 197.92 1643.94 212.92 1661.26 212.92 1669.92 197.92 1661.26 182.92"/><rect class="cls-23" x="202.53" y="946.28" width="44.75" height="44.34"/><polygon class="cls-24" points="234.03 953.34 216.72 953.34 208.06 968.34 216.72 983.34 234.03 983.34 242.7 968.34 234.03 953.34"/><rect class="cls-30" x="1537.41" y="7.73" width="60.28" height="33.19"/><rect class="cls-31" x="1541.51" y="12.51" width="53" height="24"/><rect class="cls-30" x="1143.41" y="792.73" width="60.28" height="33.19"/><rect class="cls-31" x="1147.51" y="797.51" width="53" height="24"/><rect class="cls-25" x="299.39" y="792.79" width="62.31" height="33.19" rx="16.1"/><circle class="cls-25" cx="317.53" cy="809.7" r="9"/><circle class="cls-25" cx="343.53" cy="809.7" r="9"/><rect class="cls-28" x="1099.23" y="66.5" width="29.8" height="37.25" transform="translate(1029 1199.26) rotate(-90)"/><rect class="cls-29" x="1100.21" y="69.54" width="27" height="31" transform="translate(1028.67 1198.76) rotate(-90)"/></g><g id="comp.delgHud"><path class="cls-32" d="M45,64h111.6a0,0,0,0,1,0,0v.51a24.5,24.5,0,0,1-24.5,24.5H69.38a24.5,24.5,0,0,1-24.5-24.5v-.46A.1.1,0,0,1,45,64Z"/><rect class="cls-33" x="55.5" y="69.5" width="88" height="3"/><rect class="cls-33" x="60.5" y="76.5" width="77" height="3"/><path class="cls-16" d="M289.33,21h29.8a0,0,0,0,1,0,0v25a15.59,15.59,0,0,1-15.59,15.59h0a14.21,14.21,0,0,1-14.21-14.21V21a0,0,0,0,1,0,0Z"/><polygon class="cls-17" points="309.77 24.64 298.3 24.64 292.57 34.57 298.3 44.5 309.77 44.5 315.5 34.57 309.77 24.64"/><rect class="cls-17" x="294.5" y="49.5" width="20" height="4"/><path class="cls-15" d="M80.16,166.3H250a.07.07,0,0,1,.07.07v0A23.64,23.64,0,0,1,226.45,190H80.16a.07.07,0,0,1-.07-.07V166.36a.07.07,0,0,1,.07-.07Z"/><rect class="cls-18" x="85.5" y="171.5" width="115" height="14"/><rect class="cls-18" x="204.5" y="171.5" width="21" height="14"/><rect class="cls-21" x="331.36" y="125.66" width="60.28" height="33.19" rx="16.59"/><rect class="cls-22" x="342" y="131" width="39" height="21"/></g></svg>